<?xml version="1.0" encoding="UTF-8" standalone="no"?>
<!DOCTYPE svg PUBLIC "-//W3C//DTD SVG 1.1//EN" "http://www.w3.org/Graphics/SVG/1.1/DTD/svg11.dtd">
<svg width="100%" height="100%" viewBox="0 0 2932 1656" version="1.1" xmlns="http://www.w3.org/2000/svg" xmlns:xlink="http://www.w3.org/1999/xlink" xml:space="preserve" xmlns:serif="http://www.serif.com/" style="fill-rule:evenodd;clip-rule:evenodd;stroke-linejoin:round;stroke-miterlimit:2;">
    <g transform="matrix(2.19,0,0,2.19,2337.2,370.278)">
        <path d="M90.54,33.012L49.476,5.636C48.972,5.3 48.316,5.3 47.812,5.636L6.748,33.012C6.331,33.29 6.08,33.759 6.08,34.26C6.08,34.761 6.33,35.23 6.748,35.508L12.985,39.666L12.985,61.579C12.985,62.09 13.245,62.566 13.675,62.842L48.074,84.895C48.321,85.053 48.602,85.132 48.884,85.132C49.179,85.132 49.475,85.045 49.729,84.871L67.676,72.627L67.676,81.165L60.99,94.537C60.758,95.002 60.783,95.555 61.055,95.997C61.328,96.438 61.812,96.708 62.331,96.708L76.02,96.708C76.54,96.708 77.023,96.438 77.296,95.997C77.568,95.555 77.594,95.002 77.361,94.537L70.675,81.165L70.675,70.58L82.052,62.818C82.461,62.539 82.706,62.075 82.706,61.579L82.706,40.73L90.539,35.508C90.956,35.23 91.207,34.761 91.207,34.26C91.207,33.759 90.957,33.29 90.54,33.012ZM64.759,93.708L69.176,84.874L73.593,93.708L64.759,93.708ZM48.858,81.834L15.985,60.759L15.985,41.666L47.812,62.885C48.064,63.053 48.354,63.137 48.644,63.137C48.934,63.137 49.224,63.053 49.476,62.885L67.676,50.751L67.676,68.995L48.858,81.834ZM79.707,60.787L70.676,66.949L70.676,48.751L79.707,42.73L79.707,60.787ZM80.686,38.472C80.465,38.554 80.27,38.685 80.112,38.855L69.176,46.146L49.476,33.012C48.785,32.552 47.855,32.739 47.396,33.428C46.937,34.117 47.123,35.049 47.812,35.508L66.472,47.948L48.644,59.834L10.284,34.26L48.644,8.687L87.004,34.26L80.686,38.472Z" style="fill:rgb(59,81,91);fill-rule:nonzero;stroke:rgb(59,81,91);stroke-width:1.9px;"/>
    </g>
    <g transform="matrix(2.52904,0,0,2.20211,-535.372,169.899)">
        <g transform="matrix(60.5481,0,0,60.5481,306.851,164.362)">
            <path d="M0.745,-0.358C0.745,-0.303 0.739,-0.253 0.725,-0.208C0.712,-0.163 0.692,-0.124 0.664,-0.091C0.636,-0.059 0.6,-0.034 0.556,-0.016C0.512,0.001 0.459,0.01 0.398,0.01C0.338,0.01 0.286,0.001 0.242,-0.016C0.199,-0.034 0.163,-0.059 0.134,-0.091C0.106,-0.123 0.085,-0.162 0.071,-0.208C0.058,-0.253 0.051,-0.303 0.051,-0.359C0.051,-0.433 0.063,-0.498 0.088,-0.552C0.112,-0.607 0.15,-0.65 0.202,-0.68C0.253,-0.71 0.319,-0.725 0.399,-0.725C0.48,-0.725 0.546,-0.71 0.597,-0.68C0.648,-0.649 0.686,-0.607 0.709,-0.552C0.733,-0.497 0.745,-0.432 0.745,-0.358ZM0.254,-0.358C0.254,-0.315 0.259,-0.278 0.269,-0.247C0.278,-0.216 0.294,-0.192 0.315,-0.176C0.336,-0.159 0.364,-0.151 0.398,-0.151C0.433,-0.151 0.462,-0.159 0.483,-0.176C0.504,-0.192 0.519,-0.216 0.528,-0.247C0.537,-0.278 0.542,-0.315 0.542,-0.358C0.542,-0.422 0.531,-0.473 0.51,-0.511C0.488,-0.548 0.451,-0.567 0.399,-0.567C0.364,-0.567 0.336,-0.558 0.315,-0.542C0.293,-0.525 0.278,-0.5 0.268,-0.469C0.259,-0.438 0.254,-0.401 0.254,-0.358Z" style="fill:rgb(59,81,91);fill-rule:nonzero;"/>
        </g>
        <g transform="matrix(60.5481,0,0,60.5481,355.101,164.362)">
            <path d="M0.694,-0.714L0.46,-0L0.233,-0L0,-0.714L0.217,-0.714L0.314,-0.352C0.318,-0.338 0.322,-0.321 0.326,-0.3C0.331,-0.278 0.336,-0.257 0.34,-0.236C0.344,-0.215 0.346,-0.197 0.347,-0.184C0.348,-0.197 0.351,-0.215 0.354,-0.235C0.358,-0.256 0.362,-0.277 0.366,-0.298C0.371,-0.319 0.375,-0.336 0.379,-0.35L0.478,-0.714L0.694,-0.714Z" style="fill:rgb(59,81,91);fill-rule:nonzero;"/>
        </g>
        <g transform="matrix(60.5481,0,0,60.5481,397.112,164.362)">
            <path d="M0.501,-0L0.077,-0L0.077,-0.714L0.501,-0.714L0.501,-0.559L0.27,-0.559L0.27,-0.447L0.484,-0.447L0.484,-0.292L0.27,-0.292L0.27,-0.157L0.501,-0.157L0.501,-0Z" style="fill:rgb(59,81,91);fill-rule:nonzero;"/>
        </g>
        <g transform="matrix(60.5481,0,0,60.5481,430.342,164.362)">
            <path d="M0.311,-0.714C0.376,-0.714 0.43,-0.706 0.473,-0.69C0.516,-0.674 0.548,-0.651 0.57,-0.62C0.591,-0.588 0.602,-0.549 0.602,-0.503C0.602,-0.474 0.597,-0.448 0.587,-0.424C0.578,-0.4 0.564,-0.379 0.546,-0.36C0.528,-0.341 0.506,-0.325 0.481,-0.311L0.689,-0L0.47,-0L0.319,-0.26L0.27,-0.26L0.27,-0L0.077,-0L0.077,-0.714L0.311,-0.714ZM0.308,-0.568L0.27,-0.568L0.27,-0.405L0.306,-0.405C0.336,-0.405 0.36,-0.411 0.379,-0.424C0.398,-0.437 0.407,-0.461 0.407,-0.494C0.407,-0.517 0.399,-0.535 0.384,-0.548C0.368,-0.561 0.343,-0.568 0.308,-0.568Z" style="fill:rgb(59,81,91);fill-rule:nonzero;"/>
        </g>
        <g transform="matrix(60.5481,0,0,60.5481,471.319,164.362)">
        </g>
        <g transform="matrix(121.096,0,0,121.096,487.047,164.362)">
            <path d="M0.548,-0L0.03,-0L0.03,-0.127L0.204,-0.303C0.24,-0.341 0.268,-0.371 0.288,-0.394C0.308,-0.417 0.322,-0.436 0.331,-0.452C0.339,-0.468 0.343,-0.485 0.343,-0.502C0.343,-0.523 0.336,-0.538 0.322,-0.548C0.309,-0.557 0.292,-0.562 0.274,-0.562C0.251,-0.562 0.229,-0.556 0.206,-0.543C0.183,-0.53 0.157,-0.511 0.128,-0.486L0.022,-0.61C0.043,-0.629 0.066,-0.647 0.09,-0.665C0.114,-0.682 0.143,-0.696 0.176,-0.708C0.209,-0.719 0.249,-0.724 0.296,-0.724C0.344,-0.724 0.386,-0.716 0.422,-0.699C0.458,-0.682 0.485,-0.659 0.505,-0.629C0.524,-0.6 0.534,-0.566 0.534,-0.529C0.534,-0.487 0.527,-0.451 0.511,-0.418C0.496,-0.386 0.474,-0.353 0.443,-0.321C0.413,-0.289 0.375,-0.252 0.33,-0.211L0.278,-0.164L0.278,-0.159L0.548,-0.159L0.548,-0Z" style="fill:rgb(59,81,91);fill-rule:nonzero;"/>
        </g>
        <g transform="matrix(121.096,0,0,121.096,558.002,164.362)">
            <path d="M0.571,-0.138L0.492,-0.138L0.492,-0L0.302,-0L0.302,-0.138L0.017,-0.138L0.017,-0.28L0.314,-0.714L0.492,-0.714L0.492,-0.282L0.571,-0.282L0.571,-0.138ZM0.302,-0.282L0.302,-0.365C0.302,-0.373 0.302,-0.382 0.302,-0.394C0.303,-0.405 0.303,-0.416 0.303,-0.428C0.304,-0.44 0.304,-0.449 0.305,-0.457C0.305,-0.465 0.306,-0.47 0.306,-0.47L0.301,-0.47C0.295,-0.456 0.289,-0.443 0.284,-0.434C0.278,-0.424 0.272,-0.413 0.263,-0.4L0.184,-0.282L0.302,-0.282Z" style="fill:rgb(59,81,91);fill-rule:nonzero;"/>
        </g>
        <g transform="matrix(121.096,0,0,121.096,628.956,164.362)">
            <path d="M0.551,-0.356C0.551,-0.299 0.546,-0.247 0.537,-0.202C0.528,-0.157 0.513,-0.119 0.493,-0.087C0.473,-0.056 0.447,-0.032 0.414,-0.015C0.381,0.001 0.341,0.01 0.293,0.01C0.233,0.01 0.185,-0.005 0.146,-0.034C0.108,-0.063 0.08,-0.105 0.062,-0.159C0.044,-0.214 0.035,-0.279 0.035,-0.356C0.035,-0.433 0.043,-0.499 0.06,-0.554C0.076,-0.609 0.103,-0.651 0.141,-0.68C0.179,-0.709 0.229,-0.724 0.293,-0.724C0.353,-0.724 0.401,-0.71 0.439,-0.68C0.477,-0.651 0.505,-0.609 0.523,-0.554C0.542,-0.5 0.551,-0.433 0.551,-0.356ZM0.227,-0.356C0.227,-0.309 0.229,-0.27 0.232,-0.239C0.236,-0.207 0.242,-0.184 0.252,-0.168C0.261,-0.152 0.275,-0.144 0.293,-0.144C0.311,-0.144 0.325,-0.152 0.334,-0.168C0.343,-0.184 0.35,-0.207 0.354,-0.239C0.357,-0.27 0.359,-0.309 0.359,-0.356C0.359,-0.403 0.357,-0.443 0.354,-0.474C0.35,-0.506 0.343,-0.53 0.334,-0.546C0.325,-0.562 0.311,-0.57 0.293,-0.57C0.275,-0.57 0.261,-0.562 0.252,-0.546C0.242,-0.53 0.236,-0.506 0.232,-0.474C0.229,-0.443 0.227,-0.403 0.227,-0.356Z" style="fill:rgb(59,81,91);fill-rule:nonzero;"/>
        </g>
        <g transform="matrix(121.096,0,0,121.096,699.911,164.362)">
            <path d="M0.551,-0.356C0.551,-0.299 0.546,-0.247 0.537,-0.202C0.528,-0.157 0.513,-0.119 0.493,-0.087C0.473,-0.056 0.447,-0.032 0.414,-0.015C0.381,0.001 0.341,0.01 0.293,0.01C0.233,0.01 0.185,-0.005 0.146,-0.034C0.108,-0.063 0.08,-0.105 0.062,-0.159C0.044,-0.214 0.035,-0.279 0.035,-0.356C0.035,-0.433 0.043,-0.499 0.06,-0.554C0.076,-0.609 0.103,-0.651 0.141,-0.68C0.179,-0.709 0.229,-0.724 0.293,-0.724C0.353,-0.724 0.401,-0.71 0.439,-0.68C0.477,-0.651 0.505,-0.609 0.523,-0.554C0.542,-0.5 0.551,-0.433 0.551,-0.356ZM0.227,-0.356C0.227,-0.309 0.229,-0.27 0.232,-0.239C0.236,-0.207 0.242,-0.184 0.252,-0.168C0.261,-0.152 0.275,-0.144 0.293,-0.144C0.311,-0.144 0.325,-0.152 0.334,-0.168C0.343,-0.184 0.35,-0.207 0.354,-0.239C0.357,-0.27 0.359,-0.309 0.359,-0.356C0.359,-0.403 0.357,-0.443 0.354,-0.474C0.35,-0.506 0.343,-0.53 0.334,-0.546C0.325,-0.562 0.311,-0.57 0.293,-0.57C0.275,-0.57 0.261,-0.562 0.252,-0.546C0.242,-0.53 0.236,-0.506 0.232,-0.474C0.229,-0.443 0.227,-0.403 0.227,-0.356Z" style="fill:rgb(59,81,91);fill-rule:nonzero;"/>
        </g>
        <g transform="matrix(60.5481,0,0,60.5481,770.866,164.362)">
        </g>
        <g transform="matrix(60.5481,0,0,60.5481,786.594,164.362)">
            <path d="M0.544,-0.217C0.544,-0.178 0.534,-0.141 0.515,-0.107C0.495,-0.072 0.465,-0.044 0.424,-0.022C0.382,-0.001 0.329,0.01 0.264,0.01C0.232,0.01 0.203,0.008 0.178,0.005C0.154,0.002 0.131,-0.002 0.11,-0.009C0.089,-0.016 0.067,-0.024 0.044,-0.035L0.044,-0.207C0.083,-0.188 0.122,-0.173 0.161,-0.162C0.201,-0.152 0.236,-0.147 0.268,-0.147C0.287,-0.147 0.303,-0.149 0.315,-0.154C0.327,-0.158 0.336,-0.165 0.342,-0.173C0.348,-0.181 0.351,-0.19 0.351,-0.2C0.351,-0.213 0.347,-0.223 0.338,-0.232C0.33,-0.24 0.316,-0.249 0.297,-0.259C0.278,-0.268 0.253,-0.28 0.222,-0.294C0.196,-0.306 0.172,-0.319 0.151,-0.332C0.129,-0.345 0.111,-0.36 0.096,-0.377C0.081,-0.393 0.069,-0.413 0.061,-0.436C0.053,-0.458 0.049,-0.485 0.049,-0.515C0.049,-0.561 0.06,-0.6 0.083,-0.631C0.105,-0.662 0.137,-0.685 0.177,-0.701C0.218,-0.716 0.265,-0.724 0.318,-0.724C0.364,-0.724 0.406,-0.719 0.444,-0.708C0.481,-0.698 0.514,-0.686 0.544,-0.673L0.485,-0.524C0.454,-0.538 0.424,-0.549 0.395,-0.557C0.365,-0.566 0.337,-0.57 0.312,-0.57C0.295,-0.57 0.282,-0.568 0.271,-0.564C0.261,-0.56 0.253,-0.554 0.248,-0.547C0.243,-0.541 0.24,-0.533 0.24,-0.524C0.24,-0.513 0.245,-0.503 0.253,-0.494C0.262,-0.485 0.276,-0.476 0.297,-0.466C0.317,-0.455 0.345,-0.442 0.38,-0.426C0.415,-0.41 0.444,-0.393 0.469,-0.375C0.493,-0.357 0.512,-0.336 0.525,-0.31C0.538,-0.285 0.544,-0.254 0.544,-0.217Z" style="fill:rgb(59,81,91);fill-rule:nonzero;"/>
        </g>
        <g transform="matrix(60.5481,0,0,60.5481,821.539,164.362)">
            <path d="M0.392,-0L0.199,-0L0.199,-0.556L0.025,-0.556L0.025,-0.714L0.566,-0.714L0.566,-0.556L0.392,-0.556L0.392,-0Z" style="fill:rgb(59,81,91);fill-rule:nonzero;"/>
        </g>
        <g transform="matrix(60.5481,0,0,60.5481,857.312,164.362)">
            <path d="M0.684,-0.714L0.684,-0.284C0.684,-0.224 0.673,-0.172 0.65,-0.128C0.627,-0.084 0.593,-0.05 0.547,-0.026C0.502,-0.002 0.445,0.01 0.376,0.01C0.278,0.01 0.203,-0.015 0.151,-0.066C0.099,-0.116 0.073,-0.188 0.073,-0.28L0.073,-0.714L0.267,-0.714L0.267,-0.295C0.267,-0.244 0.277,-0.208 0.295,-0.185C0.314,-0.162 0.342,-0.151 0.379,-0.151C0.405,-0.151 0.427,-0.156 0.443,-0.166C0.46,-0.176 0.472,-0.191 0.48,-0.213C0.487,-0.234 0.491,-0.262 0.491,-0.296L0.491,-0.714L0.684,-0.714Z" style="fill:rgb(59,81,91);fill-rule:nonzero;"/>
        </g>
        <g transform="matrix(60.5481,0,0,60.5481,903.137,164.362)">
            <path d="M0.683,-0.372C0.683,-0.289 0.668,-0.22 0.637,-0.165C0.606,-0.11 0.562,-0.069 0.506,-0.041C0.45,-0.014 0.384,-0 0.308,-0L0.077,-0L0.077,-0.714L0.324,-0.714C0.401,-0.714 0.466,-0.701 0.52,-0.674C0.573,-0.648 0.614,-0.609 0.641,-0.559C0.669,-0.508 0.683,-0.446 0.683,-0.372ZM0.483,-0.365C0.483,-0.409 0.477,-0.444 0.466,-0.473C0.454,-0.501 0.437,-0.523 0.414,-0.537C0.39,-0.551 0.361,-0.558 0.326,-0.558L0.27,-0.558L0.27,-0.158L0.313,-0.158C0.372,-0.158 0.415,-0.175 0.442,-0.209C0.469,-0.243 0.483,-0.295 0.483,-0.365Z" style="fill:rgb(59,81,91);fill-rule:nonzero;"/>
        </g>
        <g transform="matrix(60.5481,0,0,60.5481,947.573,164.362)">
            <path d="M0.501,-0L0.077,-0L0.077,-0.714L0.501,-0.714L0.501,-0.559L0.27,-0.559L0.27,-0.447L0.484,-0.447L0.484,-0.292L0.27,-0.292L0.27,-0.157L0.501,-0.157L0.501,-0Z" style="fill:rgb(59,81,91);fill-rule:nonzero;"/>
        </g>
        <g transform="matrix(60.5481,0,0,60.5481,980.803,164.362)">
            <path d="M0.757,-0L0.504,-0L0.243,-0.503L0.239,-0.503C0.24,-0.488 0.242,-0.469 0.243,-0.448C0.244,-0.426 0.246,-0.404 0.247,-0.382C0.248,-0.36 0.248,-0.34 0.248,-0.322L0.248,-0L0.077,-0L0.077,-0.714L0.329,-0.714L0.589,-0.218L0.592,-0.218C0.591,-0.233 0.59,-0.252 0.589,-0.272C0.588,-0.293 0.587,-0.314 0.586,-0.335C0.585,-0.356 0.585,-0.375 0.585,-0.391L0.585,-0.714L0.757,-0.714L0.757,-0Z" style="fill:rgb(59,81,91);fill-rule:nonzero;"/>
        </g>
        <g transform="matrix(60.5481,0,0,60.5481,1031.3,164.362)">
            <path d="M0.392,-0L0.199,-0L0.199,-0.556L0.025,-0.556L0.025,-0.714L0.566,-0.714L0.566,-0.556L0.392,-0.556L0.392,-0Z" style="fill:rgb(59,81,91);fill-rule:nonzero;"/>
        </g>
        <g transform="matrix(60.5481,0,0,60.5481,1067.07,164.362)">
            <path d="M0.544,-0.217C0.544,-0.178 0.534,-0.141 0.515,-0.107C0.495,-0.072 0.465,-0.044 0.424,-0.022C0.382,-0.001 0.329,0.01 0.264,0.01C0.232,0.01 0.203,0.008 0.178,0.005C0.154,0.002 0.131,-0.002 0.11,-0.009C0.089,-0.016 0.067,-0.024 0.044,-0.035L0.044,-0.207C0.083,-0.188 0.122,-0.173 0.161,-0.162C0.201,-0.152 0.236,-0.147 0.268,-0.147C0.287,-0.147 0.303,-0.149 0.315,-0.154C0.327,-0.158 0.336,-0.165 0.342,-0.173C0.348,-0.181 0.351,-0.19 0.351,-0.2C0.351,-0.213 0.347,-0.223 0.338,-0.232C0.33,-0.24 0.316,-0.249 0.297,-0.259C0.278,-0.268 0.253,-0.28 0.222,-0.294C0.196,-0.306 0.172,-0.319 0.151,-0.332C0.129,-0.345 0.111,-0.36 0.096,-0.377C0.081,-0.393 0.069,-0.413 0.061,-0.436C0.053,-0.458 0.049,-0.485 0.049,-0.515C0.049,-0.561 0.06,-0.6 0.083,-0.631C0.105,-0.662 0.137,-0.685 0.177,-0.701C0.218,-0.716 0.265,-0.724 0.318,-0.724C0.364,-0.724 0.406,-0.719 0.444,-0.708C0.481,-0.698 0.514,-0.686 0.544,-0.673L0.485,-0.524C0.454,-0.538 0.424,-0.549 0.395,-0.557C0.365,-0.566 0.337,-0.57 0.312,-0.57C0.295,-0.57 0.282,-0.568 0.271,-0.564C0.261,-0.56 0.253,-0.554 0.248,-0.547C0.243,-0.541 0.24,-0.533 0.24,-0.524C0.24,-0.513 0.245,-0.503 0.253,-0.494C0.262,-0.485 0.276,-0.476 0.297,-0.466C0.317,-0.455 0.345,-0.442 0.38,-0.426C0.415,-0.41 0.444,-0.393 0.469,-0.375C0.493,-0.357 0.512,-0.336 0.525,-0.31C0.538,-0.285 0.544,-0.254 0.544,-0.217Z" style="fill:rgb(59,81,91);fill-rule:nonzero;"/>
        </g>
        <g transform="matrix(60.5481,0,0,60.5481,1102.02,164.362)">
        </g>
    </g>
    <g transform="matrix(2.52904,0,0,2.20211,-13.2466,561.305)">
        <g transform="matrix(60.5481,0,0,60.5481,306.851,164.362)">
            <path d="M0.267,-0L0.077,-0L0.077,-0.714L0.499,-0.714L0.499,-0.559L0.267,-0.559L0.267,-0.423L0.481,-0.423L0.481,-0.268L0.267,-0.268L0.267,-0Z" style="fill:rgb(59,81,91);fill-rule:nonzero;"/>
        </g>
        <g transform="matrix(60.5481,0,0,60.5481,339.491,164.362)">
            <path d="M0.311,-0.714C0.376,-0.714 0.43,-0.706 0.473,-0.69C0.516,-0.674 0.548,-0.651 0.57,-0.62C0.591,-0.588 0.602,-0.549 0.602,-0.503C0.602,-0.474 0.597,-0.448 0.587,-0.424C0.578,-0.4 0.564,-0.379 0.546,-0.36C0.528,-0.341 0.506,-0.325 0.481,-0.311L0.689,-0L0.47,-0L0.319,-0.26L0.27,-0.26L0.27,-0L0.077,-0L0.077,-0.714L0.311,-0.714ZM0.308,-0.568L0.27,-0.568L0.27,-0.405L0.306,-0.405C0.336,-0.405 0.36,-0.411 0.379,-0.424C0.398,-0.437 0.407,-0.461 0.407,-0.494C0.407,-0.517 0.399,-0.535 0.384,-0.548C0.368,-0.561 0.343,-0.568 0.308,-0.568Z" style="fill:rgb(59,81,91);fill-rule:nonzero;"/>
        </g>
        <g transform="matrix(60.5481,0,0,60.5481,380.467,164.362)">
            <path d="M0.745,-0.358C0.745,-0.303 0.739,-0.253 0.725,-0.208C0.712,-0.163 0.692,-0.124 0.664,-0.091C0.636,-0.059 0.6,-0.034 0.556,-0.016C0.512,0.001 0.459,0.01 0.398,0.01C0.338,0.01 0.286,0.001 0.242,-0.016C0.199,-0.034 0.163,-0.059 0.134,-0.091C0.106,-0.123 0.085,-0.162 0.071,-0.208C0.058,-0.253 0.051,-0.303 0.051,-0.359C0.051,-0.433 0.063,-0.498 0.088,-0.552C0.112,-0.607 0.15,-0.65 0.202,-0.68C0.253,-0.71 0.319,-0.725 0.399,-0.725C0.48,-0.725 0.546,-0.71 0.597,-0.68C0.648,-0.649 0.686,-0.607 0.709,-0.552C0.733,-0.497 0.745,-0.432 0.745,-0.358ZM0.254,-0.358C0.254,-0.315 0.259,-0.278 0.269,-0.247C0.278,-0.216 0.294,-0.192 0.315,-0.176C0.336,-0.159 0.364,-0.151 0.398,-0.151C0.433,-0.151 0.462,-0.159 0.483,-0.176C0.504,-0.192 0.519,-0.216 0.528,-0.247C0.537,-0.278 0.542,-0.315 0.542,-0.358C0.542,-0.422 0.531,-0.473 0.51,-0.511C0.488,-0.548 0.451,-0.567 0.399,-0.567C0.364,-0.567 0.336,-0.558 0.315,-0.542C0.293,-0.525 0.278,-0.5 0.268,-0.469C0.259,-0.438 0.254,-0.401 0.254,-0.358Z" style="fill:rgb(59,81,91);fill-rule:nonzero;"/>
        </g>
        <g transform="matrix(60.5481,0,0,60.5481,428.716,164.362)">
            <path d="M0.388,-0L0.242,-0.514L0.238,-0.514C0.239,-0.501 0.24,-0.483 0.242,-0.46C0.243,-0.437 0.245,-0.413 0.246,-0.386C0.247,-0.36 0.248,-0.334 0.248,-0.31L0.248,-0L0.077,-0L0.077,-0.714L0.334,-0.714L0.483,-0.207L0.487,-0.207L0.633,-0.714L0.89,-0.714L0.89,-0L0.713,-0L0.713,-0.313C0.713,-0.335 0.713,-0.36 0.714,-0.385C0.715,-0.411 0.716,-0.436 0.717,-0.459C0.718,-0.482 0.719,-0.5 0.72,-0.513L0.716,-0.513L0.572,-0L0.388,-0Z" style="fill:rgb(59,81,91);fill-rule:nonzero;"/>
        </g>
        <g transform="matrix(60.5481,0,0,60.5481,487.254,164.362)">
        </g>
        <g transform="matrix(121.096,0,0,121.096,502.982,164.362)">
            <path d="M0.548,-0L0.03,-0L0.03,-0.127L0.204,-0.303C0.24,-0.341 0.268,-0.371 0.288,-0.394C0.308,-0.417 0.322,-0.436 0.331,-0.452C0.339,-0.468 0.343,-0.485 0.343,-0.502C0.343,-0.523 0.336,-0.538 0.322,-0.548C0.309,-0.557 0.292,-0.562 0.274,-0.562C0.251,-0.562 0.229,-0.556 0.206,-0.543C0.183,-0.53 0.157,-0.511 0.128,-0.486L0.022,-0.61C0.043,-0.629 0.066,-0.647 0.09,-0.665C0.114,-0.682 0.143,-0.696 0.176,-0.708C0.209,-0.719 0.249,-0.724 0.296,-0.724C0.344,-0.724 0.386,-0.716 0.422,-0.699C0.458,-0.682 0.485,-0.659 0.505,-0.629C0.524,-0.6 0.534,-0.566 0.534,-0.529C0.534,-0.487 0.527,-0.451 0.511,-0.418C0.496,-0.386 0.474,-0.353 0.443,-0.321C0.413,-0.289 0.375,-0.252 0.33,-0.211L0.278,-0.164L0.278,-0.159L0.548,-0.159L0.548,-0Z" style="fill:rgb(59,81,91);fill-rule:nonzero;"/>
        </g>
        <g transform="matrix(121.096,0,0,121.096,573.937,164.362)">
            <path d="M0.46,-0L0.264,-0L0.264,-0.389C0.264,-0.406 0.264,-0.426 0.265,-0.447C0.265,-0.468 0.266,-0.487 0.267,-0.504C0.259,-0.494 0.251,-0.485 0.243,-0.478C0.236,-0.471 0.229,-0.464 0.222,-0.458L0.141,-0.391L0.041,-0.514L0.286,-0.714L0.46,-0.714L0.46,-0Z" style="fill:rgb(59,81,91);fill-rule:nonzero;"/>
        </g>
        <g transform="matrix(121.096,0,0,121.096,644.892,164.362)">
            <path d="M0.551,-0.356C0.551,-0.299 0.546,-0.247 0.537,-0.202C0.528,-0.157 0.513,-0.119 0.493,-0.087C0.473,-0.056 0.447,-0.032 0.414,-0.015C0.381,0.001 0.341,0.01 0.293,0.01C0.233,0.01 0.185,-0.005 0.146,-0.034C0.108,-0.063 0.08,-0.105 0.062,-0.159C0.044,-0.214 0.035,-0.279 0.035,-0.356C0.035,-0.433 0.043,-0.499 0.06,-0.554C0.076,-0.609 0.103,-0.651 0.141,-0.68C0.179,-0.709 0.229,-0.724 0.293,-0.724C0.353,-0.724 0.401,-0.71 0.439,-0.68C0.477,-0.651 0.505,-0.609 0.523,-0.554C0.542,-0.5 0.551,-0.433 0.551,-0.356ZM0.227,-0.356C0.227,-0.309 0.229,-0.27 0.232,-0.239C0.236,-0.207 0.242,-0.184 0.252,-0.168C0.261,-0.152 0.275,-0.144 0.293,-0.144C0.311,-0.144 0.325,-0.152 0.334,-0.168C0.343,-0.184 0.35,-0.207 0.354,-0.239C0.357,-0.27 0.359,-0.309 0.359,-0.356C0.359,-0.403 0.357,-0.443 0.354,-0.474C0.35,-0.506 0.343,-0.53 0.334,-0.546C0.325,-0.562 0.311,-0.57 0.293,-0.57C0.275,-0.57 0.261,-0.562 0.252,-0.546C0.242,-0.53 0.236,-0.506 0.232,-0.474C0.229,-0.443 0.227,-0.403 0.227,-0.356Z" style="fill:rgb(59,81,91);fill-rule:nonzero;"/>
        </g>
        <g transform="matrix(60.5481,0,0,60.5481,715.846,164.362)">
        </g>
        <g transform="matrix(60.5481,0,0,60.5481,731.575,164.362)">
            <path d="M0.544,-0.217C0.544,-0.178 0.534,-0.141 0.515,-0.107C0.495,-0.072 0.465,-0.044 0.424,-0.022C0.382,-0.001 0.329,0.01 0.264,0.01C0.232,0.01 0.203,0.008 0.178,0.005C0.154,0.002 0.131,-0.002 0.11,-0.009C0.089,-0.016 0.067,-0.024 0.044,-0.035L0.044,-0.207C0.083,-0.188 0.122,-0.173 0.161,-0.162C0.201,-0.152 0.236,-0.147 0.268,-0.147C0.287,-0.147 0.303,-0.149 0.315,-0.154C0.327,-0.158 0.336,-0.165 0.342,-0.173C0.348,-0.181 0.351,-0.19 0.351,-0.2C0.351,-0.213 0.347,-0.223 0.338,-0.232C0.33,-0.24 0.316,-0.249 0.297,-0.259C0.278,-0.268 0.253,-0.28 0.222,-0.294C0.196,-0.306 0.172,-0.319 0.151,-0.332C0.129,-0.345 0.111,-0.36 0.096,-0.377C0.081,-0.393 0.069,-0.413 0.061,-0.436C0.053,-0.458 0.049,-0.485 0.049,-0.515C0.049,-0.561 0.06,-0.6 0.083,-0.631C0.105,-0.662 0.137,-0.685 0.177,-0.701C0.218,-0.716 0.265,-0.724 0.318,-0.724C0.364,-0.724 0.406,-0.719 0.444,-0.708C0.481,-0.698 0.514,-0.686 0.544,-0.673L0.485,-0.524C0.454,-0.538 0.424,-0.549 0.395,-0.557C0.365,-0.566 0.337,-0.57 0.312,-0.57C0.295,-0.57 0.282,-0.568 0.271,-0.564C0.261,-0.56 0.253,-0.554 0.248,-0.547C0.243,-0.541 0.24,-0.533 0.24,-0.524C0.24,-0.513 0.245,-0.503 0.253,-0.494C0.262,-0.485 0.276,-0.476 0.297,-0.466C0.317,-0.455 0.345,-0.442 0.38,-0.426C0.415,-0.41 0.444,-0.393 0.469,-0.375C0.493,-0.357 0.512,-0.336 0.525,-0.31C0.538,-0.285 0.544,-0.254 0.544,-0.217Z" style="fill:rgb(59,81,91);fill-rule:nonzero;"/>
        </g>
        <g transform="matrix(60.5481,0,0,60.5481,766.52,164.362)">
            <path d="M0.684,-0.714L0.684,-0.284C0.684,-0.224 0.673,-0.172 0.65,-0.128C0.627,-0.084 0.593,-0.05 0.547,-0.026C0.502,-0.002 0.445,0.01 0.376,0.01C0.278,0.01 0.203,-0.015 0.151,-0.066C0.099,-0.116 0.073,-0.188 0.073,-0.28L0.073,-0.714L0.267,-0.714L0.267,-0.295C0.267,-0.244 0.277,-0.208 0.295,-0.185C0.314,-0.162 0.342,-0.151 0.379,-0.151C0.405,-0.151 0.427,-0.156 0.443,-0.166C0.46,-0.176 0.472,-0.191 0.48,-0.213C0.487,-0.234 0.491,-0.262 0.491,-0.296L0.491,-0.714L0.684,-0.714Z" style="fill:rgb(59,81,91);fill-rule:nonzero;"/>
        </g>
        <g transform="matrix(60.5481,0,0,60.5481,812.345,164.362)">
            <path d="M0.077,-0.714L0.326,-0.714C0.429,-0.714 0.503,-0.699 0.547,-0.668C0.591,-0.637 0.613,-0.593 0.613,-0.536C0.613,-0.505 0.607,-0.478 0.596,-0.457C0.585,-0.435 0.571,-0.417 0.553,-0.405C0.536,-0.392 0.519,-0.383 0.501,-0.379L0.501,-0.374C0.521,-0.369 0.54,-0.361 0.559,-0.35C0.579,-0.339 0.595,-0.322 0.608,-0.3C0.621,-0.277 0.627,-0.247 0.627,-0.209C0.627,-0.166 0.616,-0.128 0.594,-0.097C0.572,-0.066 0.541,-0.042 0.5,-0.025C0.459,-0.008 0.411,-0 0.355,-0L0.077,-0L0.077,-0.714ZM0.27,-0.44L0.328,-0.44C0.36,-0.44 0.382,-0.447 0.396,-0.46C0.409,-0.473 0.415,-0.489 0.415,-0.508C0.415,-0.527 0.408,-0.542 0.393,-0.552C0.378,-0.563 0.355,-0.568 0.324,-0.568L0.27,-0.568L0.27,-0.44ZM0.27,-0.299L0.27,-0.149L0.338,-0.149C0.371,-0.149 0.395,-0.156 0.408,-0.171C0.422,-0.185 0.428,-0.203 0.428,-0.225C0.428,-0.238 0.425,-0.25 0.42,-0.261C0.414,-0.272 0.404,-0.281 0.391,-0.288C0.377,-0.295 0.358,-0.299 0.334,-0.299L0.27,-0.299Z" style="fill:rgb(59,81,91);fill-rule:nonzero;"/>
        </g>
        <g transform="matrix(60.5481,0,0,60.5481,853.144,164.362)">
            <path d="M0.021,0.224C-0.001,0.224 -0.02,0.223 -0.036,0.221C-0.053,0.219 -0.067,0.216 -0.079,0.214L-0.079,0.064C-0.069,0.066 -0.058,0.068 -0.046,0.071C-0.034,0.073 -0.021,0.074 -0.008,0.074C0.015,0.074 0.033,0.069 0.046,0.06C0.059,0.051 0.068,0.036 0.073,0.018C0.078,-0.001 0.081,-0.025 0.081,-0.053L0.081,-0.714L0.275,-0.714L0.275,-0.07C0.275,0.002 0.264,0.059 0.243,0.102C0.221,0.145 0.191,0.176 0.153,0.195C0.115,0.215 0.071,0.224 0.021,0.224Z" style="fill:rgb(59,81,91);fill-rule:nonzero;"/>
        </g>
        <g transform="matrix(60.5481,0,0,60.5481,874.46,164.362)">
            <path d="M0.501,-0L0.077,-0L0.077,-0.714L0.501,-0.714L0.501,-0.559L0.27,-0.559L0.27,-0.447L0.484,-0.447L0.484,-0.292L0.27,-0.292L0.27,-0.157L0.501,-0.157L0.501,-0Z" style="fill:rgb(59,81,91);fill-rule:nonzero;"/>
        </g>
        <g transform="matrix(60.5481,0,0,60.5481,907.69,164.362)">
            <path d="M0.395,-0.566C0.372,-0.566 0.352,-0.561 0.334,-0.552C0.316,-0.542 0.301,-0.528 0.288,-0.51C0.275,-0.492 0.266,-0.469 0.259,-0.443C0.252,-0.417 0.249,-0.387 0.249,-0.354C0.249,-0.309 0.255,-0.271 0.266,-0.241C0.278,-0.21 0.295,-0.187 0.318,-0.171C0.341,-0.156 0.371,-0.148 0.406,-0.148C0.438,-0.148 0.468,-0.152 0.498,-0.161C0.527,-0.17 0.557,-0.181 0.587,-0.193L0.587,-0.03C0.555,-0.016 0.523,-0.006 0.49,0C0.457,0.007 0.422,0.01 0.385,0.01C0.307,0.01 0.244,-0.006 0.195,-0.036C0.145,-0.067 0.109,-0.11 0.086,-0.165C0.062,-0.219 0.051,-0.283 0.051,-0.355C0.051,-0.409 0.058,-0.458 0.073,-0.503C0.089,-0.548 0.111,-0.587 0.14,-0.62C0.169,-0.653 0.206,-0.679 0.249,-0.697C0.292,-0.715 0.341,-0.724 0.397,-0.724C0.431,-0.724 0.468,-0.72 0.506,-0.712C0.544,-0.704 0.582,-0.691 0.618,-0.674L0.559,-0.522C0.533,-0.534 0.507,-0.545 0.48,-0.553C0.453,-0.562 0.425,-0.566 0.395,-0.566Z" style="fill:rgb(59,81,91);fill-rule:nonzero;"/>
        </g>
        <g transform="matrix(60.5481,0,0,60.5481,946.982,164.362)">
            <path d="M0.392,-0L0.199,-0L0.199,-0.556L0.025,-0.556L0.025,-0.714L0.566,-0.714L0.566,-0.556L0.392,-0.556L0.392,-0Z" style="fill:rgb(59,81,91);fill-rule:nonzero;"/>
        </g>
        <g transform="matrix(60.5481,0,0,60.5481,982.755,164.362)">
            <path d="M0.544,-0.217C0.544,-0.178 0.534,-0.141 0.515,-0.107C0.495,-0.072 0.465,-0.044 0.424,-0.022C0.382,-0.001 0.329,0.01 0.264,0.01C0.232,0.01 0.203,0.008 0.178,0.005C0.154,0.002 0.131,-0.002 0.11,-0.009C0.089,-0.016 0.067,-0.024 0.044,-0.035L0.044,-0.207C0.083,-0.188 0.122,-0.173 0.161,-0.162C0.201,-0.152 0.236,-0.147 0.268,-0.147C0.287,-0.147 0.303,-0.149 0.315,-0.154C0.327,-0.158 0.336,-0.165 0.342,-0.173C0.348,-0.181 0.351,-0.19 0.351,-0.2C0.351,-0.213 0.347,-0.223 0.338,-0.232C0.33,-0.24 0.316,-0.249 0.297,-0.259C0.278,-0.268 0.253,-0.28 0.222,-0.294C0.196,-0.306 0.172,-0.319 0.151,-0.332C0.129,-0.345 0.111,-0.36 0.096,-0.377C0.081,-0.393 0.069,-0.413 0.061,-0.436C0.053,-0.458 0.049,-0.485 0.049,-0.515C0.049,-0.561 0.06,-0.6 0.083,-0.631C0.105,-0.662 0.137,-0.685 0.177,-0.701C0.218,-0.716 0.265,-0.724 0.318,-0.724C0.364,-0.724 0.406,-0.719 0.444,-0.708C0.481,-0.698 0.514,-0.686 0.544,-0.673L0.485,-0.524C0.454,-0.538 0.424,-0.549 0.395,-0.557C0.365,-0.566 0.337,-0.57 0.312,-0.57C0.295,-0.57 0.282,-0.568 0.271,-0.564C0.261,-0.56 0.253,-0.554 0.248,-0.547C0.243,-0.541 0.24,-0.533 0.24,-0.524C0.24,-0.513 0.245,-0.503 0.253,-0.494C0.262,-0.485 0.276,-0.476 0.297,-0.466C0.317,-0.455 0.345,-0.442 0.38,-0.426C0.415,-0.41 0.444,-0.393 0.469,-0.375C0.493,-0.357 0.512,-0.336 0.525,-0.31C0.538,-0.285 0.544,-0.254 0.544,-0.217Z" style="fill:rgb(59,81,91);fill-rule:nonzero;"/>
        </g>
        <g transform="matrix(60.5481,0,0,60.5481,1017.7,164.362)">
        </g>
    </g>
    <g transform="matrix(4,0,0,4,-693.175,657.206)">
        <g transform="matrix(33.3333,0,0,33.3333,306.851,164.362)">
            <path d="M0.077,-0.714L0.326,-0.714C0.429,-0.714 0.503,-0.699 0.547,-0.668C0.591,-0.637 0.613,-0.593 0.613,-0.536C0.613,-0.505 0.607,-0.478 0.596,-0.457C0.585,-0.435 0.571,-0.417 0.553,-0.405C0.536,-0.392 0.519,-0.383 0.501,-0.379L0.501,-0.374C0.521,-0.369 0.54,-0.361 0.559,-0.35C0.579,-0.339 0.595,-0.322 0.608,-0.3C0.621,-0.277 0.627,-0.247 0.627,-0.209C0.627,-0.166 0.616,-0.128 0.594,-0.097C0.572,-0.066 0.541,-0.042 0.5,-0.025C0.459,-0.008 0.411,-0 0.355,-0L0.077,-0L0.077,-0.714ZM0.27,-0.44L0.328,-0.44C0.36,-0.44 0.382,-0.447 0.396,-0.46C0.409,-0.473 0.415,-0.489 0.415,-0.508C0.415,-0.527 0.408,-0.542 0.393,-0.552C0.378,-0.563 0.355,-0.568 0.324,-0.568L0.27,-0.568L0.27,-0.44ZM0.27,-0.299L0.27,-0.149L0.338,-0.149C0.371,-0.149 0.395,-0.156 0.408,-0.171C0.422,-0.185 0.428,-0.203 0.428,-0.225C0.428,-0.238 0.425,-0.25 0.42,-0.261C0.414,-0.272 0.404,-0.281 0.391,-0.288C0.377,-0.295 0.358,-0.299 0.334,-0.299L0.27,-0.299Z" style="fill:rgb(59,81,91);fill-rule:nonzero;"/>
        </g>
        <g transform="matrix(33.3333,0,0,33.3333,329.312,164.362)">
            <path d="M0.332,-0.449L0.455,-0.714L0.664,-0.714L0.429,-0.279L0.429,-0L0.235,-0L0.235,-0.273L0,-0.714L0.21,-0.714L0.332,-0.449Z" style="fill:rgb(59,81,91);fill-rule:nonzero;"/>
        </g>
        <g transform="matrix(33.3333,0,0,33.3333,351.448,164.362)">
        </g>
        <g transform="matrix(66.6667,0,0,66.6667,360.107,164.362)">
            <path d="M0.548,-0L0.03,-0L0.03,-0.127L0.204,-0.303C0.24,-0.341 0.268,-0.371 0.288,-0.394C0.308,-0.417 0.322,-0.436 0.331,-0.452C0.339,-0.468 0.343,-0.485 0.343,-0.502C0.343,-0.523 0.336,-0.538 0.322,-0.548C0.309,-0.557 0.292,-0.562 0.274,-0.562C0.251,-0.562 0.229,-0.556 0.206,-0.543C0.183,-0.53 0.157,-0.511 0.128,-0.486L0.022,-0.61C0.043,-0.629 0.066,-0.647 0.09,-0.665C0.114,-0.682 0.143,-0.696 0.176,-0.708C0.209,-0.719 0.249,-0.724 0.296,-0.724C0.344,-0.724 0.386,-0.716 0.422,-0.699C0.458,-0.682 0.485,-0.659 0.505,-0.629C0.524,-0.6 0.534,-0.566 0.534,-0.529C0.534,-0.487 0.527,-0.451 0.511,-0.418C0.496,-0.386 0.474,-0.353 0.443,-0.321C0.413,-0.289 0.375,-0.252 0.33,-0.211L0.278,-0.164L0.278,-0.159L0.548,-0.159L0.548,-0Z" style="fill:rgb(59,81,91);fill-rule:nonzero;"/>
        </g>
        <g transform="matrix(66.6667,0,0,66.6667,399.169,164.362)">
            <path d="M0.102,-0L0.347,-0.554L0.038,-0.554L0.038,-0.714L0.553,-0.714L0.553,-0.6L0.302,-0L0.102,-0Z" style="fill:rgb(59,81,91);fill-rule:nonzero;"/>
        </g>
        <g transform="matrix(33.3333,0,0,33.3333,438.232,164.362)">
        </g>
        <g transform="matrix(33.3333,0,0,33.3333,446.89,164.362)">
            <path d="M0.077,-0L0.077,-0.714L0.27,-0.714L0.27,-0.156L0.545,-0.156L0.545,-0L0.077,-0Z" style="fill:rgb(59,81,91);fill-rule:nonzero;"/>
        </g>
        <g transform="matrix(33.3333,0,0,33.3333,466.291,164.362)">
            <path d="M0.501,-0L0.077,-0L0.077,-0.714L0.501,-0.714L0.501,-0.559L0.27,-0.559L0.27,-0.447L0.484,-0.447L0.484,-0.292L0.27,-0.292L0.27,-0.157L0.501,-0.157L0.501,-0Z" style="fill:rgb(59,81,91);fill-rule:nonzero;"/>
        </g>
        <g transform="matrix(33.3333,0,0,33.3333,484.586,164.362)">
            <path d="M0.395,-0.566C0.372,-0.566 0.352,-0.561 0.334,-0.552C0.316,-0.542 0.301,-0.528 0.288,-0.51C0.275,-0.492 0.266,-0.469 0.259,-0.443C0.252,-0.417 0.249,-0.387 0.249,-0.354C0.249,-0.309 0.255,-0.271 0.266,-0.241C0.278,-0.21 0.295,-0.187 0.318,-0.171C0.341,-0.156 0.371,-0.148 0.406,-0.148C0.438,-0.148 0.468,-0.152 0.498,-0.161C0.527,-0.17 0.557,-0.181 0.587,-0.193L0.587,-0.03C0.555,-0.016 0.523,-0.006 0.49,0C0.457,0.007 0.422,0.01 0.385,0.01C0.307,0.01 0.244,-0.006 0.195,-0.036C0.145,-0.067 0.109,-0.11 0.086,-0.165C0.062,-0.219 0.051,-0.283 0.051,-0.355C0.051,-0.409 0.058,-0.458 0.073,-0.503C0.089,-0.548 0.111,-0.587 0.14,-0.62C0.169,-0.653 0.206,-0.679 0.249,-0.697C0.292,-0.715 0.341,-0.724 0.397,-0.724C0.431,-0.724 0.468,-0.72 0.506,-0.712C0.544,-0.704 0.582,-0.691 0.618,-0.674L0.559,-0.522C0.533,-0.534 0.507,-0.545 0.48,-0.553C0.453,-0.562 0.425,-0.566 0.395,-0.566Z" style="fill:rgb(59,81,91);fill-rule:nonzero;"/>
        </g>
        <g transform="matrix(33.3333,0,0,33.3333,506.217,164.362)">
            <path d="M0.392,-0L0.199,-0L0.199,-0.556L0.025,-0.556L0.025,-0.714L0.566,-0.714L0.566,-0.556L0.392,-0.556L0.392,-0Z" style="fill:rgb(59,81,91);fill-rule:nonzero;"/>
        </g>
        <g transform="matrix(33.3333,0,0,33.3333,525.911,164.362)">
            <path d="M0.684,-0.714L0.684,-0.284C0.684,-0.224 0.673,-0.172 0.65,-0.128C0.627,-0.084 0.593,-0.05 0.547,-0.026C0.502,-0.002 0.445,0.01 0.376,0.01C0.278,0.01 0.203,-0.015 0.151,-0.066C0.099,-0.116 0.073,-0.188 0.073,-0.28L0.073,-0.714L0.267,-0.714L0.267,-0.295C0.267,-0.244 0.277,-0.208 0.295,-0.185C0.314,-0.162 0.342,-0.151 0.379,-0.151C0.405,-0.151 0.427,-0.156 0.443,-0.166C0.46,-0.176 0.472,-0.191 0.48,-0.213C0.487,-0.234 0.491,-0.262 0.491,-0.296L0.491,-0.714L0.684,-0.714Z" style="fill:rgb(59,81,91);fill-rule:nonzero;"/>
        </g>
        <g transform="matrix(33.3333,0,0,33.3333,551.138,164.362)">
            <path d="M0.311,-0.714C0.376,-0.714 0.43,-0.706 0.473,-0.69C0.516,-0.674 0.548,-0.651 0.57,-0.62C0.591,-0.588 0.602,-0.549 0.602,-0.503C0.602,-0.474 0.597,-0.448 0.587,-0.424C0.578,-0.4 0.564,-0.379 0.546,-0.36C0.528,-0.341 0.506,-0.325 0.481,-0.311L0.689,-0L0.47,-0L0.319,-0.26L0.27,-0.26L0.27,-0L0.077,-0L0.077,-0.714L0.311,-0.714ZM0.308,-0.568L0.27,-0.568L0.27,-0.405L0.306,-0.405C0.336,-0.405 0.36,-0.411 0.379,-0.424C0.398,-0.437 0.407,-0.461 0.407,-0.494C0.407,-0.517 0.399,-0.535 0.384,-0.548C0.368,-0.561 0.343,-0.568 0.308,-0.568Z" style="fill:rgb(59,81,91);fill-rule:nonzero;"/>
        </g>
        <g transform="matrix(33.3333,0,0,33.3333,573.697,164.362)">
            <path d="M0.501,-0L0.077,-0L0.077,-0.714L0.501,-0.714L0.501,-0.559L0.27,-0.559L0.27,-0.447L0.484,-0.447L0.484,-0.292L0.27,-0.292L0.27,-0.157L0.501,-0.157L0.501,-0Z" style="fill:rgb(59,81,91);fill-rule:nonzero;"/>
        </g>
        <g transform="matrix(33.3333,0,0,33.3333,591.991,164.362)">
            <path d="M0.311,-0.714C0.376,-0.714 0.43,-0.706 0.473,-0.69C0.516,-0.674 0.548,-0.651 0.57,-0.62C0.591,-0.588 0.602,-0.549 0.602,-0.503C0.602,-0.474 0.597,-0.448 0.587,-0.424C0.578,-0.4 0.564,-0.379 0.546,-0.36C0.528,-0.341 0.506,-0.325 0.481,-0.311L0.689,-0L0.47,-0L0.319,-0.26L0.27,-0.26L0.27,-0L0.077,-0L0.077,-0.714L0.311,-0.714ZM0.308,-0.568L0.27,-0.568L0.27,-0.405L0.306,-0.405C0.336,-0.405 0.36,-0.411 0.379,-0.424C0.398,-0.437 0.407,-0.461 0.407,-0.494C0.407,-0.517 0.399,-0.535 0.384,-0.548C0.368,-0.561 0.343,-0.568 0.308,-0.568Z" style="fill:rgb(59,81,91);fill-rule:nonzero;"/>
        </g>
        <g transform="matrix(33.3333,0,0,33.3333,614.55,164.362)">
            <path d="M0.544,-0.217C0.544,-0.178 0.534,-0.141 0.515,-0.107C0.495,-0.072 0.465,-0.044 0.424,-0.022C0.382,-0.001 0.329,0.01 0.264,0.01C0.232,0.01 0.203,0.008 0.178,0.005C0.154,0.002 0.131,-0.002 0.11,-0.009C0.089,-0.016 0.067,-0.024 0.044,-0.035L0.044,-0.207C0.083,-0.188 0.122,-0.173 0.161,-0.162C0.201,-0.152 0.236,-0.147 0.268,-0.147C0.287,-0.147 0.303,-0.149 0.315,-0.154C0.327,-0.158 0.336,-0.165 0.342,-0.173C0.348,-0.181 0.351,-0.19 0.351,-0.2C0.351,-0.213 0.347,-0.223 0.338,-0.232C0.33,-0.24 0.316,-0.249 0.297,-0.259C0.278,-0.268 0.253,-0.28 0.222,-0.294C0.196,-0.306 0.172,-0.319 0.151,-0.332C0.129,-0.345 0.111,-0.36 0.096,-0.377C0.081,-0.393 0.069,-0.413 0.061,-0.436C0.053,-0.458 0.049,-0.485 0.049,-0.515C0.049,-0.561 0.06,-0.6 0.083,-0.631C0.105,-0.662 0.137,-0.685 0.177,-0.701C0.218,-0.716 0.265,-0.724 0.318,-0.724C0.364,-0.724 0.406,-0.719 0.444,-0.708C0.481,-0.698 0.514,-0.686 0.544,-0.673L0.485,-0.524C0.454,-0.538 0.424,-0.549 0.395,-0.557C0.365,-0.566 0.337,-0.57 0.312,-0.57C0.295,-0.57 0.282,-0.568 0.271,-0.564C0.261,-0.56 0.253,-0.554 0.248,-0.547C0.243,-0.541 0.24,-0.533 0.24,-0.524C0.24,-0.513 0.245,-0.503 0.253,-0.494C0.262,-0.485 0.276,-0.476 0.297,-0.466C0.317,-0.455 0.345,-0.442 0.38,-0.426C0.415,-0.41 0.444,-0.393 0.469,-0.375C0.493,-0.357 0.512,-0.336 0.525,-0.31C0.538,-0.285 0.544,-0.254 0.544,-0.217Z" style="fill:rgb(59,81,91);fill-rule:nonzero;"/>
        </g>
        <g transform="matrix(33.3333,0,0,33.3333,633.788,164.362)">
        </g>
    </g>
    <g transform="matrix(0.296241,0,0,0.296241,1912.34,1155.19)">
        <g transform="matrix(8.05639,0,0,8.05639,0,0)">
            <path d="M42.9,41.3C52.2,41.3 59.8,33.7 59.8,24.4C59.8,15.1 52.2,7.6 42.9,7.6C33.6,7.6 26,15.1 26,24.4C26,33.7 33.6,41.3 42.9,41.3ZM42.9,10.6C50.5,10.6 56.8,16.8 56.8,24.4C56.8,32 50.6,38.3 42.9,38.3C35.2,38.3 29,32 29,24.4C29,16.8 35.2,10.6 42.9,10.6Z" style="fill:rgb(59,81,91);fill-rule:nonzero;stroke:rgb(59,81,91);stroke-width:1.75px;"/>
        </g>
        <g transform="matrix(8.05639,0,0,8.05639,0,0)">
            <path d="M88.4,72L83.9,72L83.9,49C83.9,48.6 83.8,48.2 83.5,48L79.8,44C81,41.7 80.4,38.8 78.4,37.1L74.3,33.6C73.1,32.6 71.6,32.1 70.1,32.3C68.6,32.4 67.2,33.1 66.2,34.3C64.2,36.7 64.5,40.4 66.9,42.4L71,45.9C72.1,46.8 73.4,47.3 74.7,47.3C75.8,47.3 76.9,47 77.8,46.4L80.9,49.7L80.9,72L72.4,72C72,56.3 59.1,43.7 43.4,43.7C27.6,43.7 14.7,56.3 14.4,72L10.7,72C9.9,72 9.2,72.7 9.2,73.5L9.2,89.9C9.2,90.7 9.9,91.4 10.7,91.4L88.5,91.4C89.3,91.4 90,90.7 90,89.9L90,73.5C89.9,72.7 89.2,72 88.4,72ZM72.9,43.6L68.8,40.1C67.6,39.1 67.5,37.4 68.5,36.2C69,35.6 69.6,35.3 70.4,35.2L70.6,35.2C71.2,35.2 71.9,35.4 72.4,35.9L76.5,39.4C77.7,40.4 77.8,42.1 76.8,43.3C75.8,44.4 74.1,44.6 72.9,43.6ZM43.3,46.6C57.4,46.6 69,57.9 69.3,71.9L17.3,71.9C17.7,57.9 29.2,46.6 43.3,46.6ZM86.9,88.4L12.1,88.4L12.1,75L86.9,75L86.9,88.4Z" style="fill:rgb(59,81,91);fill-rule:nonzero;stroke:rgb(59,81,91);stroke-width:1.75px;"/>
        </g>
    </g>
    <g transform="matrix(2.28481,0,0,2.28481,2598.5,761.36)">
        <path d="M69.294,11.442C62.506,5.848 53.57,3.622 44.782,5.333C32.951,7.636 23.449,17.623 21.675,29.62C20.228,39.41 23.706,49.187 30.979,55.775C34.256,58.743 36.233,63.018 36.547,67.814C36.553,67.901 36.57,67.985 36.589,68.068L36.589,83.107C36.589,83.935 37.26,84.607 38.089,84.607L39.584,84.607C40.193,88.966 43.397,92.304 47.256,92.304L54.066,92.304C57.925,92.304 61.128,88.966 61.737,84.607L63.232,84.607C64.06,84.607 64.732,83.935 64.732,83.107L64.732,67.828C64.732,67.825 64.733,67.822 64.733,67.818C64.733,63.356 66.759,59.047 70.439,55.685C76.501,50.147 79.977,42.27 79.977,34.075C79.978,25.287 76.084,17.037 69.294,11.442ZM45.357,39.91L43.052,39.91C41.781,39.91 40.747,38.876 40.747,37.605C40.747,36.334 41.781,35.3 43.052,35.3C44.323,35.3 45.357,36.334 45.357,37.605L45.357,39.91ZM55.966,37.605C55.966,36.334 57,35.3 58.272,35.3C59.543,35.3 60.577,36.334 60.577,37.605C60.577,38.876 59.543,39.91 58.272,39.91L55.969,39.91L55.966,37.605ZM55.063,69.211L61.733,69.211L61.733,81.607L60.36,81.607C60.357,81.607 60.354,81.606 60.35,81.606C60.346,81.606 60.344,81.607 60.34,81.607L40.982,81.607C40.979,81.607 40.976,81.606 40.972,81.606C40.968,81.606 40.966,81.607 40.962,81.607L39.59,81.607L39.59,69.211L57.307,69.239M48.357,66.211L48.357,42.91L52.974,42.91L53.008,66.211L48.357,66.211ZM54.066,89.304L47.256,89.304C45.018,89.304 43.139,87.3 42.619,84.607L58.702,84.607C58.183,87.3 56.304,89.304 54.066,89.304ZM68.416,53.471C64.544,57.008 62.252,61.484 61.823,66.211L56.007,66.211L55.974,42.91L58.272,42.91C61.197,42.91 63.577,40.53 63.577,37.605C63.577,34.68 61.197,32.3 58.272,32.3C55.346,32.3 52.966,34.68 52.966,37.607L52.969,39.91L48.357,39.91L48.357,37.605C48.357,34.68 45.977,32.3 43.052,32.3C40.127,32.3 37.747,34.68 37.747,37.605C37.747,40.53 40.127,42.91 43.052,42.91L45.357,42.91L45.357,66.211L39.385,66.211C38.749,61.206 36.521,56.746 32.992,53.551C26.464,47.637 23.342,38.855 24.642,30.058C26.233,19.298 34.75,10.342 45.354,8.277C53.262,6.739 61.292,8.735 67.384,13.757C73.48,18.78 76.976,26.186 76.976,34.076C76.978,41.43 73.857,48.5 68.416,53.471Z" style="fill:rgb(59,81,91);fill-rule:nonzero;stroke:rgb(59,81,91);stroke-width:1.82px;"/>
    </g>
</svg>
