<?xml version="1.0" encoding="UTF-8" standalone="no"?>
<!DOCTYPE svg PUBLIC "-//W3C//DTD SVG 1.1//EN" "http://www.w3.org/Graphics/SVG/1.1/DTD/svg11.dtd">
<svg width="100%" height="100%" viewBox="0 0 400 123" version="1.1" xmlns="http://www.w3.org/2000/svg" xmlns:xlink="http://www.w3.org/1999/xlink" xml:space="preserve" xmlns:serif="http://www.serif.com/" style="fill-rule:evenodd;clip-rule:evenodd;stroke-linejoin:round;stroke-miterlimit:2;">
    <g transform="matrix(0.868056,0,0,0.868056,-46.6146,-46.6181)">
        <clipPath id="_clip1">
            <rect x="53.7" y="53.7" width="460.8" height="141.7"/>
        </clipPath>
        <g clip-path="url(#_clip1)">
            <path d="M464.6,146.7L460.7,146.7L460.7,167L465,167L465,156.1C465,154.1 465.4,152.6 466.1,151.6C466.8,150.6 467.9,150.1 469.4,150.1L471.7,150.1L471.7,146.4C471.1,146.3 470.5,146.3 469.8,146.3C467.8,146.3 466.3,147.2 465.1,148.9L464.6,146.7ZM357,138.8L352.7,138.8L352.7,167L357,167L357,156C357,152 358.5,150.1 361.5,150.1C363.1,150.1 364.3,150.6 365,151.5C365.7,152.4 366.1,153.9 366.1,156L366.1,167L370.4,167L370.4,156C370.4,152.7 369.8,150.3 368.5,148.8C367.2,147.2 365.2,146.4 362.4,146.4C361.2,146.4 360.1,146.7 359.2,147.2C358.3,147.7 357.5,148.3 357,149L357,138.8ZM356.8,107.6L352.5,107.6L352.5,127.8L356.8,127.8L356.8,107.6ZM357,99.6L352.1,99.6L352.1,104.4L357,104.4L357,99.6ZM333,149.2C331.3,151.1 330.4,153.7 330.4,156.8C330.4,160 331.3,162.5 333,164.4C334.7,166.3 337.1,167.3 340,167.3C341.3,167.3 342.4,167.1 343.5,166.7C344.6,166.3 345.4,165.8 346.2,165.1C346.9,164.4 347.5,163.7 347.9,162.9C348.3,162.1 348.7,161.3 348.8,160.4C346.6,160 345.2,159.7 344.5,159.6C344.2,160.8 343.6,161.8 342.9,162.5C342.1,163.2 341.2,163.5 340,163.5C338.3,163.5 337,162.9 336.1,161.6C335.2,160.4 334.7,158.7 334.7,156.6C334.7,154.5 335.2,152.9 336.1,151.6C337,150.4 338.3,149.8 340,149.8C341.1,149.8 342,150.1 342.8,150.8C343.6,151.5 344.1,152.4 344.5,153.7C344.7,153.7 346.2,153.4 348.8,152.9C348.6,152.2 348.4,151.5 348.1,150.9C347.8,150.3 347.4,149.7 346.9,149.1C346.4,148.5 345.8,148 345.2,147.6C344.6,147.2 343.8,146.8 342.9,146.6C342,146.3 341.1,146.2 340,146.2C337,146.3 334.7,147.3 333,149.2M314.3,160.2C314.3,160.2 312.9,160.5 310.1,161C310.4,162.9 311.3,164.5 312.8,165.6C314.3,166.8 316.3,167.4 318.8,167.4C321.3,167.4 323.4,166.8 325,165.7C326.6,164.6 327.4,163 327.4,160.9C327.4,160 327.2,159.2 326.9,158.5C326.6,157.8 326.2,157.3 325.7,156.8C325.2,156.4 324.6,156 323.8,155.7C323,155.4 322.3,155.2 321.5,155.1C320.8,155 319.9,154.8 318.9,154.7C317.6,154.6 316.6,154.3 315.9,154C315.3,153.7 314.9,153.1 314.9,152.4C314.9,151.8 315.2,151.2 315.9,150.8C316.6,150.3 317.4,150.1 318.5,150.1C321.1,150.1 322.5,151.2 322.7,153.5C325.1,153 326.5,152.8 327,152.7C326.9,151.6 326.5,150.6 326,149.8C325.5,149 324.8,148.3 324.1,147.8C323.3,147.3 322.4,146.9 321.5,146.7C320.6,146.5 319.5,146.3 318.4,146.3C316.2,146.3 314.4,146.9 312.9,148C311.4,149.2 310.7,150.6 310.7,152.3C310.7,153.2 310.8,154 311.1,154.7C311.4,155.4 311.8,155.9 312.2,156.3C312.7,156.7 313.2,157 313.9,157.3C314.5,157.6 315.2,157.7 315.9,157.8C316.6,157.9 317.3,158 318,158.1C318.7,158.2 319.3,158.3 320,158.4C320.6,158.5 321.2,158.6 321.7,158.8C322.2,159 322.6,159.2 322.8,159.6C323.1,159.9 323.2,160.4 323.2,160.9C323.2,161.5 323,162 322.7,162.4C322.3,162.8 321.9,163.1 321.4,163.3C320.9,163.5 320.4,163.6 320,163.6C319.6,163.7 319.3,163.7 319,163.7C316.2,163.7 314.7,162.5 314.3,160.2M293.1,138.8L288.8,138.8L288.8,167L293.1,167L293.1,156C293.1,152 294.6,150.1 297.6,150.1C299.2,150.1 300.4,150.6 301.1,151.5C301.8,152.4 302.2,153.9 302.2,156L302.2,167L306.5,167L306.5,156C306.5,152.7 305.9,150.3 304.6,148.8C303.3,147.2 301.3,146.4 298.5,146.4C297.3,146.4 296.2,146.7 295.3,147.2C294.4,147.7 293.6,148.3 293.1,149L293.1,138.8ZM289.2,117.7C289.2,119.9 288.7,121.6 287.8,122.8C286.9,124 285.6,124.6 284.1,124.6C282.5,124.6 281.3,124 280.4,122.8C279.5,121.6 279,119.9 279,117.7C279,115.5 279.5,113.9 280.4,112.7C281.3,111.5 282.6,110.9 284.1,110.9C285.7,110.9 286.9,111.5 287.8,112.7C288.7,113.8 289.2,115.5 289.2,117.7M291,125.3C292.7,123.4 293.5,120.8 293.5,117.7C293.5,114.6 292.6,112 290.9,110.1C289.2,108.2 286.9,107.2 284,107.2C281.1,107.2 278.8,108.2 277.1,110.1C275.4,112 274.6,114.6 274.6,117.7C274.6,120.9 275.4,123.4 277.1,125.3C278.8,127.2 281.1,128.2 284,128.2C287,128.2 289.3,127.2 291,125.3M269,149.2C267.3,151.1 266.4,153.7 266.4,156.8C266.4,160 267.3,162.5 269,164.4C270.7,166.3 273.1,167.3 276,167.3C277.3,167.3 278.4,167.1 279.5,166.7C280.6,166.3 281.4,165.8 282.2,165.1C282.9,164.4 283.5,163.7 283.9,162.9C284.3,162.1 284.7,161.3 284.8,160.4C282.6,160 281.2,159.7 280.5,159.6C280.2,160.8 279.6,161.8 278.8,162.5C278,163.2 277.1,163.5 275.9,163.5C274.2,163.5 272.9,162.9 272,161.6C271.1,160.3 270.6,158.7 270.6,156.6C270.6,154.5 271.1,152.9 272,151.6C272.9,150.4 274.2,149.8 275.9,149.8C277,149.8 277.9,150.1 278.7,150.8C279.5,151.5 280,152.4 280.4,153.7C280.6,153.7 282.1,153.4 284.7,152.9C284.5,152.2 284.3,151.5 284,150.9C283.7,150.3 283.3,149.7 282.8,149.1C282.3,148.5 281.7,148 281.1,147.6C280.5,147.2 279.7,146.8 278.8,146.6C277.9,146.3 277,146.2 275.9,146.2C273.1,146.3 270.8,147.3 269,149.2M249.3,156.8C249.3,154.6 249.8,153 250.7,151.8C251.6,150.6 252.9,150 254.4,150C256,150 257.2,150.6 258.1,151.8C259,153 259.5,154.7 259.5,156.8C259.5,159 259,160.7 258.1,161.9C257.2,163.1 255.9,163.7 254.4,163.7C252.8,163.7 251.6,163.1 250.7,161.9C249.7,160.7 249.3,159 249.3,156.8M247.5,149.2C245.8,151.1 245,153.7 245,156.8C245,160 245.8,162.5 247.5,164.4C249.2,166.3 251.5,167.3 254.4,167.3C257.3,167.3 259.6,166.3 261.3,164.4C263,162.5 263.8,159.9 263.8,156.8C263.8,153.7 262.9,151.1 261.2,149.2C259.5,147.3 257.2,146.3 254.3,146.3C251.5,146.3 249.2,147.3 247.5,149.2M239.2,110.8C240.8,110.8 242,111.3 242.7,112.2C243.4,113.2 243.8,114.7 243.8,116.7L243.8,127.7L248.1,127.7L248.1,116.7C248.1,113.4 247.5,111 246.2,109.4C245,107.8 242.9,107.1 240,107C238.8,107 237.7,107.3 236.7,107.8C235.7,108.3 235,108.9 234.6,109.6L234.2,107.4L230.3,107.4L230.3,127.6L234.6,127.6L234.6,116.6C234.7,112.8 236.2,110.8 239.2,110.8M224.9,138.8L220.4,138.8L220.4,167L224.9,167L224.9,154.4L237,154.4L237,167L241.5,167L241.5,138.8L237,138.8L237,150.6L224.9,150.6L224.9,138.8ZM224.9,99.6L220.4,99.6L220.4,127.8L224.9,127.8L224.9,99.6ZM110.5,148.7L60.2,126.3L123,100.5L173.3,122.9L110.5,148.7ZM112.6,189.8L112.6,184.3L175.4,158.5L175.4,164L112.6,189.8ZM175.5,153.8L112.7,179.6L112.7,173.5L175.5,147.7L175.5,153.8ZM175.4,143L112.6,168.8L112.6,162.8L175.4,137.1L175.4,143ZM175.4,132.3L112.6,158L112.6,152.4L175.4,126.7L175.4,132.3ZM175.4,119.1L125.2,96.8L125.2,59.6L175.3,82.2L175.4,119.1ZM120.8,59.4L120.8,64.9L58.2,90.6L58.2,85.1L120.8,59.4ZM58.2,95.3L120.9,69.6L120.9,75.6L58.2,101.3L58.2,95.3ZM58.2,106.1L120.9,80.4L120.9,86.4L58.2,112.1L58.2,106.1ZM58.2,116.8L120.9,91.1L120.9,96.7L58.2,122.4L58.2,116.8ZM58.1,130.2L108.2,152.5L108.2,189.7L58.1,167.1L58.1,130.2ZM110.4,195.5L179.8,167L179.7,79.3L123,53.8L53.8,82.2L53.8,170L110.4,195.5ZM241.2,79.7C241.2,78.8 241.1,77.9 240.8,77.2C240.6,76.4 240.3,75.8 239.9,75.3C239.5,74.8 239.1,74.3 238.5,73.9C237.9,73.5 237.3,73.1 236.8,72.9C236.2,72.6 235.6,72.4 234.8,72.2C234,72 233.4,71.9 232.8,71.8C232.2,71.7 231.5,71.6 230.8,71.5C226.6,71 224.5,69.7 224.5,67.5C224.5,66.7 224.7,66.1 225,65.5C225.3,64.9 225.8,64.5 226.3,64.1C226.9,63.8 227.5,63.5 228.1,63.4C228.8,63.2 229.5,63.2 230.2,63.2C230.9,63.2 231.6,63.3 232.3,63.5C233,63.7 233.6,64 234.1,64.4C234.7,64.8 235.1,65.3 235.5,66C235.9,66.7 236.1,67.5 236.2,68.3L240.5,67.6C240.4,66.3 240.1,65.2 239.5,64.1C238.9,63.1 238.1,62.2 237.2,61.5C236.2,60.8 235.1,60.3 233.9,59.9C232.7,59.5 231.4,59.3 230.2,59.3C229.2,59.3 228.3,59.4 227.3,59.6C226.4,59.8 225.5,60.1 224.6,60.5C223.7,60.9 222.9,61.5 222.3,62.1C221.6,62.7 221.1,63.5 220.7,64.4C220.3,65.3 220.1,66.3 220.1,67.4C220.1,71.9 223.6,74.5 230.5,75.2C231.1,75.2 231.6,75.3 232,75.4C232.4,75.5 232.9,75.6 233.4,75.7C233.9,75.8 234.3,76 234.7,76.2C235.1,76.4 235.4,76.7 235.7,77C236,77.3 236.3,77.7 236.4,78.1C236.6,78.6 236.6,79.1 236.6,79.6C236.6,81.1 236,82.2 234.8,83C233.6,83.8 232.1,84.2 230.4,84.2C229.3,84.2 228.2,84 227.3,83.6C226.4,83.2 225.7,82.7 225.2,82C224.7,81.4 224.3,80.7 224,80C223.7,79.3 223.6,78.6 223.6,77.9L219.1,78.7C219.1,79.6 219.3,80.4 219.5,81.3C219.8,82.1 220.2,83 220.8,83.8C221.4,84.6 222.1,85.3 222.9,86C223.7,86.6 224.8,87.1 226.1,87.5C227.4,87.9 228.8,88.1 230.3,88.1C233.5,88.1 236.1,87.3 238,85.8C240.2,84.3 241.2,82.2 241.2,79.7M250.8,70.8L255,70.8L255,67.6L250.8,67.6L250.8,61.7L246.5,61.7L246.5,67.6L243,67.6L243,70.8L246.5,70.8L246.5,82C246.5,84 246.9,85.5 247.6,86.5C248.4,87.5 249.7,88 251.5,88L252,88L254.6,87.8L254.6,84.3L252.7,84.3C252,84.3 251.5,84.2 251.2,83.8C250.9,83.5 250.8,83 250.8,82.1L250.8,70.8ZM262.8,107.2C261.6,107.2 260.5,107.5 259.5,108C258.5,108.5 257.8,109.1 257.4,109.8L257,107.6L253.1,107.6L253.1,127.8L257.4,127.8L257.4,116.8C257.4,112.8 258.9,110.8 261.9,110.8C263.5,110.8 264.6,111.3 265.4,112.2C266.1,113.2 266.5,114.7 266.5,116.7L266.5,127.7L270.8,127.7L270.8,116.7C270.8,113.4 270.2,111 268.9,109.4C267.7,108 265.7,107.2 262.8,107.2M259.9,87.8L264.2,87.8L264.2,67.5L259.9,67.5L259.9,87.8ZM259.7,64.5L264.6,64.5L264.6,59.7L259.7,59.7L259.7,64.5ZM277.9,63.3L280.3,63.3L280.3,59.6L277.3,59.6C273.6,59.6 271.7,61.4 271.7,65.1L271.7,67.6L268.2,67.6L268.2,70.8L271.7,70.8L271.7,87.8L276,87.8L276,70.8L279.8,70.8L279.8,67.6L276,67.6L276,65.4C276.2,64 276.7,63.3 277.9,63.3M290.2,70.8L294.4,70.8L294.4,67.6L290.2,67.6L290.2,61.7L285.9,61.7L285.9,67.6L282.4,67.6L282.4,70.8L285.9,70.8L285.9,82C285.9,84 286.3,85.5 287,86.5C287.8,87.5 289.1,88 290.9,88L291.4,88L294,87.8L294,84.3L292.1,84.3C291.4,84.3 290.9,84.2 290.6,83.8C290.3,83.5 290.2,83 290.2,82.1L290.2,70.8ZM299,107.6L294.5,107.6L302.1,127.8L306.4,127.8L313.9,107.6L309.4,107.6L304.2,122.6L299,107.6ZM312.2,87.8L316.1,87.8L316.1,67.5L311.8,67.5L311.8,78.5C311.8,80.5 311.4,82 310.7,83C310,84 308.8,84.5 307.3,84.5C305.7,84.5 304.6,84 303.8,83.1C303.1,82.2 302.7,80.7 302.7,78.6L302.7,67.6L298.4,67.6L298.4,78.6C298.4,81.9 299,84.3 300.2,85.9C301.4,87.5 303.4,88.2 306.2,88.2C307.5,88.2 308.6,87.9 309.6,87.4C310.6,86.9 311.3,86.3 311.7,85.6L312.2,87.8ZM328.7,118.9L328.7,120C328.7,121.2 328.2,122.3 327.2,123.2C326.2,124.1 324.9,124.6 323.2,124.6C322,124.6 321.1,124.3 320.5,123.8C319.9,123.3 319.6,122.6 319.6,121.8C319.6,121.5 319.7,121.2 319.8,120.9C319.9,120.6 320.1,120.3 320.4,120C320.7,119.7 321.1,119.4 321.7,119.2C322.3,119 323,118.9 323.9,118.9L328.7,118.9ZM324.4,107.2C322.9,107.2 321.6,107.4 320.4,107.9C319.2,108.4 318.2,109.1 317.4,110.1C316.6,111.1 316.1,112.3 316,113.8C316.5,113.9 317.2,114 318.2,114.2C319.2,114.4 319.9,114.5 320.3,114.6C320.3,113.4 320.7,112.5 321.4,111.9C322.1,111.3 323.1,111 324.4,111C325.1,111 325.7,111.1 326.3,111.2C326.8,111.4 327.3,111.6 327.6,111.8C327.9,112 328.2,112.3 328.4,112.7C328.6,113 328.7,113.4 328.8,113.7C328.9,114 328.9,114.3 328.9,114.7L328.9,115.9L323.7,115.9C321.2,115.9 319.1,116.5 317.7,117.7C316.2,118.9 315.5,120.3 315.5,122C315.5,123.9 316.2,125.5 317.5,126.7C318.8,127.9 320.7,128.5 323,128.5C324.5,128.5 325.8,128.1 326.9,127.5C328,126.9 328.8,126.2 329.4,125.5C329.6,126.4 329.9,127.1 330.5,127.6C331.1,128.1 331.9,128.4 332.9,128.4C333.8,128.4 334.6,128.3 335.5,128.1L335.5,124.6C335.2,124.7 334.9,124.8 334.5,124.8C334.1,124.8 333.8,124.6 333.6,124.3C333.4,124 333.4,123.5 333.4,122.9L333.4,115.9C333.4,113.1 332.7,111.1 331.2,109.7C329.4,107.9 327.2,107.2 324.4,107.2M334.9,87.8L339.3,87.8L339.3,76.8C339.3,73.5 338.7,71.1 337.4,69.5C336.2,67.9 334.1,67.2 331.2,67.1C330,67.1 328.9,67.4 327.9,67.9C326.9,68.4 326.2,69 325.8,69.7L325.4,67.5L321.5,67.5L321.5,87.7L325.8,87.7L325.8,76.7C325.8,72.7 327.3,70.7 330.3,70.7C331.9,70.7 333,71.2 333.8,72.1C334.5,73.1 334.9,74.6 334.9,76.6L334.9,87.8ZM339.3,101.6L339.3,107.6L335.8,107.6L335.8,110.8L339.3,110.8L339.3,122C339.3,124 339.7,125.5 340.4,126.5C341.2,127.5 342.5,128 344.3,128L344.8,128L347.4,127.8L347.4,124.3L345.5,124.3C344.8,124.3 344.3,124.1 344,123.8C343.7,123.5 343.6,122.9 343.6,122.2L343.6,110.7L347.8,110.7L347.8,107.5L343.6,107.5L343.6,101.6L339.3,101.6ZM357.7,77.6C357.7,79.8 357.3,81.5 356.4,82.7C355.5,83.9 354.3,84.5 352.7,84.5C351.1,84.5 349.8,83.9 348.9,82.7C348,81.5 347.5,79.8 347.5,77.6C347.5,75.4 348,73.8 348.9,72.6C349.8,71.4 351.1,70.8 352.7,70.8C354.3,70.8 355.5,71.4 356.4,72.6C357.3,73.8 357.7,75.5 357.7,77.6M359.4,93.7C361.1,92.1 362,89.9 362,86.9L362,67.5L358,67.5L357.6,70.1C357.2,69.3 356.5,68.6 355.4,68C354.3,67.4 353.2,67.1 351.9,67.1C349.3,67.1 347.1,68.1 345.5,70C343.8,72 343,74.5 343,77.6C343,80.7 343.8,83.2 345.5,85.2C347.2,87.2 349.3,88.1 351.9,88.1C353.1,88.1 354.2,87.8 355.3,87.3C356.4,86.8 357.2,86.1 357.6,85.3L357.6,86.8C357.6,88.5 357.2,89.8 356.3,90.8C355.4,91.8 354.2,92.3 352.6,92.3C351.5,92.3 350.5,92 349.6,91.5C348.7,91 348.2,90.3 348,89.5L343.8,90.7C344.2,92.4 345.2,93.7 346.8,94.6C348.4,95.5 350.3,96 352.6,96C355.4,96.1 357.7,95.3 359.4,93.7M375.8,117.7C375.8,119.9 375.3,121.6 374.4,122.8C373.5,124 372.2,124.6 370.7,124.6C369.1,124.6 367.9,124 367,122.8C366.1,121.6 365.6,119.9 365.6,117.7C365.6,115.5 366.1,113.9 367,112.7C367.9,111.5 369.2,110.9 370.7,110.9C372.3,110.9 373.5,111.5 374.4,112.7C375.4,113.8 375.8,115.5 375.8,117.7M377.6,125.3C379.3,123.4 380.1,120.8 380.1,117.7C380.1,114.6 379.2,112 377.5,110.1C375.8,108.2 373.5,107.2 370.6,107.2C367.7,107.2 365.4,108.2 363.7,110.1C362,112 361.2,114.6 361.2,117.7C361.2,120.9 362,123.4 363.7,125.3C365.4,127.2 367.7,128.2 370.6,128.2C373.6,128.2 375.9,127.2 377.6,125.3M383.5,163.7C381.9,163.7 380.8,163.2 380,162.3C379.3,161.4 378.9,159.9 378.9,157.8L378.9,146.8L374.6,146.8L374.6,157.8C374.6,161.1 375.2,163.5 376.4,165.1C377.6,166.7 379.6,167.4 382.4,167.4C383.7,167.4 384.8,167.1 385.8,166.6C386.8,166.1 387.5,165.5 387.9,164.8L388.3,167L392.2,167L392.2,146.8L388,146.8L388,157.8C388,159.8 387.6,161.3 386.9,162.3C386.1,163.2 385,163.7 383.5,163.7M397.7,127.8L402.1,127.8L402.1,116.8C402.1,113.5 401.5,111.1 400.2,109.5C399,107.9 396.9,107.2 394,107.1C392.8,107.1 391.7,107.4 390.7,107.9C389.7,108.4 389,109 388.6,109.7L388.2,107.5L384.3,107.5L384.3,127.7L388.6,127.7L388.6,116.7C388.6,112.7 390.1,110.7 393.1,110.7C394.7,110.7 395.8,111.2 396.6,112.1C397.3,113.1 397.7,114.6 397.7,116.6L397.7,127.8ZM397.8,167L402.1,167L402.1,138.8L397.8,138.8L397.8,167ZM407.5,167L411.8,167L411.8,138.8L407.5,138.8L407.5,167ZM416.2,104.5L421.1,104.5L421.1,99.7L416.2,99.7L416.2,104.5ZM420.8,107.6L416.5,107.6L416.5,127.8L420.8,127.8L420.8,107.6ZM429.6,154.9L420.4,154.9C420.5,153.6 420.9,152.4 421.7,151.5C422.5,150.5 423.6,150.1 425,150.1C426.4,150.1 427.5,150.5 428.3,151.4C429.1,152.2 429.5,153.4 429.6,154.9M431.7,149C430.1,147.2 427.8,146.3 425,146.3C422.2,146.3 419.9,147.3 418.2,149.2C416.5,151.1 415.6,153.7 415.6,156.8C415.6,159.9 416.5,162.4 418.3,164.4C420.1,166.3 422.4,167.3 425.1,167.3C426.4,167.3 427.6,167.1 428.7,166.7C429.8,166.3 430.7,165.8 431.4,165.2C432.1,164.6 432.7,163.9 433.2,163.2C433.7,162.5 434,161.7 434.3,161C432,160.3 430.6,159.9 430.3,159.9C429.8,161.2 429.1,162.2 428.2,162.8C427.3,163.4 426.2,163.7 425.1,163.7C423.7,163.7 422.5,163.2 421.5,162.1C420.6,161 420.1,159.7 420,158.2L433.9,158.2C434,157.7 434,157.1 434,156.3C434.2,153.2 433.4,150.8 431.7,149M439.9,127.8L444.3,127.8L444.3,116.8C444.3,113.5 443.7,111.1 442.4,109.5C441.2,107.9 439.1,107.2 436.2,107.1C435,107.1 433.9,107.4 432.9,107.9C431.9,108.4 431.2,109 430.8,109.7L430.4,107.5L426.5,107.5L426.5,127.7L430.8,127.7L430.8,116.7C430.8,112.7 432.3,110.7 435.3,110.7C436.9,110.7 438,111.2 438.8,112.1C439.5,113.1 439.9,114.6 439.9,116.6L439.9,127.8ZM452,167L456.3,167L456.3,156C456.3,152.7 455.7,150.3 454.4,148.8C453.1,147.2 451.1,146.4 448.3,146.4C447.1,146.4 446,146.7 445.1,147.2C444.2,147.7 443.4,148.3 442.9,149L442.9,138.9L438.6,138.9L438.6,167L442.9,167L442.9,156C442.9,152 444.4,150.1 447.4,150.1C449,150.1 450.2,150.6 450.9,151.5C451.6,152.4 452,153.9 452,156L452,167ZM471.8,117.7C471.8,119.9 471.4,121.6 470.5,122.8C469.6,124 468.4,124.6 466.8,124.6C465.2,124.6 463.9,124 463,122.8C462.1,121.6 461.6,119.9 461.6,117.8C461.6,115.6 462.1,114 463,112.8C463.9,111.6 465.2,111 466.8,111C468.4,111 469.6,111.6 470.5,112.8C471.4,113.8 471.8,115.5 471.8,117.7M472.2,127.8L476.2,127.8L476.2,99.6L471.9,99.6L471.9,110C471.4,109.3 470.6,108.7 469.5,108.1C468.4,107.5 467.3,107.2 466,107.2C463.3,107.2 461.2,108.2 459.6,110.1C458,112 457.2,114.6 457.2,117.7C457.2,120.8 458,123.3 459.7,125.3C461.3,127.3 463.4,128.2 466,128.2C467.3,128.2 468.5,127.9 469.6,127.3C470.7,126.7 471.4,126 471.9,125.3L472.2,127.8ZM479.7,151.5C480.5,150.5 481.6,150.1 483,150.1C484.4,150.1 485.5,150.5 486.3,151.4C487.1,152.3 487.5,153.5 487.5,155L478.3,155C478.5,153.6 478.9,152.4 479.7,151.5M483,146.3C480.2,146.3 477.9,147.3 476.2,149.2C474.5,151.1 473.7,153.7 473.7,156.8C473.7,159.9 474.6,162.4 476.4,164.4C478.2,166.3 480.5,167.3 483.2,167.3C484.5,167.3 485.7,167.1 486.8,166.7C487.9,166.3 488.8,165.8 489.5,165.2C490.2,164.6 490.8,163.9 491.3,163.2C491.8,162.5 492.1,161.7 492.4,161C490.1,160.3 488.7,159.9 488.4,159.9C487.9,161.2 487.2,162.2 486.3,162.8C485.4,163.4 484.3,163.7 483.2,163.7C481.8,163.7 480.6,163.2 479.6,162.1C478.7,161 478.2,159.7 478.1,158.2L492,158.2C492.1,157.7 492.1,157.1 492.1,156.3C492.1,153.3 491.3,150.8 489.6,149.1C488.1,147.2 485.8,146.3 483,146.3M485.1,115.7C485.2,114.4 485.6,113.2 486.4,112.3C487.2,111.3 488.3,110.9 489.7,110.9C491.1,110.9 492.2,111.3 493,112.2C493.8,113.1 494.2,114.3 494.2,115.8L485.1,115.8L485.1,115.7ZM486.3,122.9C485.4,121.8 484.9,120.5 484.8,119L498.7,119C498.8,118.5 498.8,117.9 498.8,117.1C498.8,114.1 498,111.6 496.3,109.9C494.7,108.1 492.4,107.2 489.6,107.2C486.8,107.2 484.5,108.2 482.8,110.1C481.1,112 480.2,114.6 480.2,117.7C480.2,120.8 481.1,123.3 482.9,125.3C484.7,127.2 487,128.2 489.7,128.2C491,128.2 492.2,128 493.3,127.6C494.4,127.2 495.3,126.7 496,126.1C496.7,125.5 497.3,124.8 497.8,124.1C498.3,123.4 498.6,122.6 498.9,121.9C496.6,121.2 495.2,120.8 494.9,120.8C494.4,122.1 493.7,123.1 492.8,123.7C491.9,124.3 490.8,124.6 489.7,124.6C488.5,124.5 487.3,124 486.3,122.9M514.6,111L514.6,107.3C514,107.2 513.4,107.2 512.7,107.2C510.7,107.2 509.2,108.1 508,109.8L507.6,107.6L503.7,107.6L503.7,127.8L508,127.8L508,116.9C508,114.9 508.4,113.4 509.1,112.4C509.8,111.4 510.9,110.9 512.4,110.9L514.6,110.9L514.6,111Z" style="fill-rule:nonzero;"/>
        </g>
    </g>
</svg>
