<?xml version="1.0" encoding="UTF-8" standalone="no"?>
<!DOCTYPE svg PUBLIC "-//W3C//DTD SVG 1.1//EN" "http://www.w3.org/Graphics/SVG/1.1/DTD/svg11.dtd">
<svg width="100%" height="100%" viewBox="0 0 393 128" version="1.1" xmlns="http://www.w3.org/2000/svg" xmlns:xlink="http://www.w3.org/1999/xlink" xml:space="preserve" xmlns:serif="http://www.serif.com/" style="fill-rule:evenodd;clip-rule:evenodd;stroke-linejoin:round;stroke-miterlimit:2;">
    <g>
        <path d="M120.492,97.397C114.378,97.397 113.08,93.888 113.08,90.138L113.08,76.68L116.224,76.68L116.224,89.896C116.224,92.619 117.089,94.674 120.693,94.674C123.866,94.674 125.308,93.284 125.308,89.473L125.308,76.68L128.394,76.68L128.394,89.231C128.394,94.674 125.596,97.397 120.492,97.397Z" style="fill:rgb(35,31,32);fill-rule:nonzero;"/>
        <path d="M142.401,97.094L142.401,88.134C142.401,86.398 141.925,85.39 140.329,85.39C138.229,85.39 136.689,87.602 136.689,90.374L136.689,97.094L133.693,97.094L133.693,83.178L136.549,83.178C136.549,83.907 136.493,85.11 136.353,85.894L136.381,85.922C137.193,84.13 138.873,82.898 141.225,82.898C144.389,82.898 145.369,84.886 145.369,87.35L145.369,97.094L142.401,97.094Z" style="fill:rgb(35,31,32);fill-rule:nonzero;"/>
        <path d="M150.577,97.094L150.577,83.178L153.573,83.178L153.573,97.094L150.577,97.094ZM152.088,81.106C151.024,81.106 150.157,80.266 150.157,79.23C150.157,78.194 151.024,77.354 152.088,77.354C153.125,77.354 153.993,78.166 153.993,79.23C153.993,80.266 153.125,81.106 152.088,81.106Z" style="fill:rgb(35,31,32);fill-rule:nonzero;"/>
        <path d="M165.024,97.094L161.972,97.094L156.764,83.178L160.068,83.178L162.672,90.542C163.008,91.495 163.316,92.474 163.568,93.398L163.596,93.398C163.82,92.53 164.1,91.55 164.408,90.654L167.068,83.178L170.288,83.178L165.024,97.094Z" style="fill:rgb(35,31,32);fill-rule:nonzero;"/>
        <path d="M178.604,85.11C176.924,85.11 175.748,86.342 175.496,88.218L181.404,88.218C181.46,86.314 180.368,85.11 178.604,85.11ZM184.316,90.318L175.44,90.318C175.356,93.539 176.784,94.995 179.556,94.995C180.984,94.995 182.468,94.659 183.616,94.098L183.896,96.478C182.496,97.066 180.788,97.374 179.08,97.374C174.74,97.374 172.36,95.134 172.36,90.234C172.36,86.035 174.656,82.898 178.716,82.898C182.692,82.898 184.4,85.615 184.4,88.918C184.4,89.31 184.372,89.787 184.316,90.318Z" style="fill:rgb(35,31,32);fill-rule:nonzero;"/>
        <path d="M195.74,85.838C192.968,85.334 191.624,87.266 191.624,91.438L191.624,97.094L188.628,97.094L188.628,83.178L191.484,83.178C191.484,83.962 191.4,85.194 191.204,86.258L191.26,86.258C191.876,84.382 193.276,82.646 195.88,82.898L195.74,85.838Z" style="fill:rgb(35,31,32);fill-rule:nonzero;"/>
        <path d="M201.704,97.374C200.668,97.374 199.632,97.262 198.764,97.094L198.848,94.546C199.716,94.798 200.808,94.995 201.872,94.995C203.496,94.995 204.616,94.294 204.616,93.146C204.616,90.346 198.512,92.026 198.512,87.21C198.512,84.802 200.472,82.898 204.252,82.898C205.063,82.898 206.016,83.01 206.855,83.15L206.771,85.586C205.932,85.334 204.952,85.194 204.056,85.194C202.404,85.194 201.592,85.867 201.592,86.93C201.592,89.619 207.752,88.247 207.752,92.867C207.752,95.47 205.428,97.374 201.704,97.374Z" style="fill:rgb(35,31,32);fill-rule:nonzero;"/>
        <path d="M212.035,97.094L212.035,83.178L215.031,83.178L215.031,97.094L212.035,97.094ZM213.549,81.106C212.484,81.106 211.615,80.266 211.615,79.23C211.615,78.194 212.484,77.354 213.549,77.354C214.584,77.354 215.451,78.166 215.451,79.23C215.451,80.266 214.584,81.106 213.549,81.106Z" style="fill:rgb(35,31,32);fill-rule:nonzero;"/>
        <path d="M225.252,97.341C222.283,97.341 221.389,96.216 221.389,93.171L221.389,85.736L218.729,85.736L218.729,83.458L221.389,83.458L221.389,79.124L224.355,78.329L224.355,83.458L228.023,83.458L228.023,85.736L224.383,85.736L224.383,92.266C224.383,94.295 224.803,94.844 226.203,94.844C226.82,94.844 227.492,94.762 228.023,94.625L228.023,97.04C227.211,97.204 226.176,97.341 225.252,97.341Z" style="fill:rgb(35,31,32);fill-rule:nonzero;"/>
        <path d="M239.867,80.546C238.914,80.546 238.158,79.791 238.158,78.838C238.158,77.915 238.914,77.159 239.867,77.159C240.791,77.159 241.547,77.915 241.547,78.838C241.547,79.791 240.791,80.546 239.867,80.546ZM239.307,90.794C234.939,90.794 233.986,92.11 233.986,93.314C233.986,94.35 234.715,95.022 235.891,95.022C237.936,95.022 239.307,93.062 239.307,91.075L239.307,90.794ZM234.352,80.546C233.398,80.546 232.672,79.791 232.672,78.838C232.672,77.915 233.398,77.159 234.352,77.159C235.303,77.159 236.059,77.915 236.059,78.838C236.059,79.791 235.303,80.546 234.352,80.546ZM239.502,97.094C239.502,96.198 239.531,95.274 239.643,94.518L239.615,94.491C238.943,96.142 237.207,97.374 234.994,97.374C232.615,97.374 231.104,96.03 231.104,93.818C231.104,90.626 234.295,88.778 239.307,88.778L239.307,87.882C239.307,86.146 238.578,85.25 236.395,85.25C235.107,85.25 233.428,85.642 232.25,86.371L231.971,83.823C233.344,83.291 235.078,82.898 236.871,82.898C241.127,82.898 242.303,84.747 242.303,87.602L242.303,93.287C242.303,94.491 242.33,95.918 242.387,97.094L239.502,97.094Z" style="fill:rgb(35,31,32);fill-rule:nonzero;"/>
        <path d="M252.02,97.341C249.051,97.341 248.156,96.216 248.156,93.171L248.156,85.736L245.496,85.736L245.496,83.458L248.156,83.458L248.156,79.124L251.123,78.329L251.123,83.458L254.791,83.458L254.791,85.736L251.15,85.736L251.15,92.266C251.15,94.295 251.57,94.844 252.971,94.844C253.588,94.844 254.26,94.762 254.791,94.625L254.791,97.04C253.979,97.204 252.943,97.341 252.02,97.341Z" style="fill:rgb(35,31,32);fill-rule:nonzero;"/>
        <path d="M282.963,97.094L282.963,87.93L273.764,87.93L273.764,97.094L270.619,97.094L270.619,76.68L273.764,76.68L273.764,85.118L282.963,85.118L282.963,76.68L286.078,76.68L286.078,97.094L282.963,97.094Z" style="fill:rgb(35,31,32);fill-rule:nonzero;"/>
        <path d="M299.783,90.794C295.414,90.794 294.463,92.11 294.463,93.314C294.463,94.35 295.191,95.022 296.367,95.022C298.41,95.022 299.783,93.062 299.783,91.075L299.783,90.794ZM299.979,97.094C299.979,96.198 300.006,95.274 300.119,94.518L300.09,94.491C299.418,96.142 297.682,97.374 295.471,97.374C293.09,97.374 291.578,96.03 291.578,93.818C291.578,90.626 294.77,88.778 299.783,88.778L299.783,87.882C299.783,86.146 299.055,85.25 296.871,85.25C295.582,85.25 293.902,85.642 292.727,86.371L292.447,83.823C293.818,83.291 295.555,82.898 297.346,82.898C301.602,82.898 302.779,84.747 302.779,87.602L302.779,93.287C302.779,94.491 302.807,95.918 302.863,97.094L299.979,97.094Z" style="fill:rgb(35,31,32);fill-rule:nonzero;"/>
        <path d="M325.432,97.094L325.432,88.218C325.432,86.482 325.012,85.39 323.416,85.39C321.623,85.39 319.832,87.378 319.832,90.43L319.832,97.094L316.891,97.094L316.891,88.19C316.891,86.623 316.555,85.39 314.875,85.39C312.971,85.39 311.318,87.518 311.318,90.43L311.318,97.094L308.322,97.094L308.322,83.178L311.18,83.178C311.18,83.907 311.123,85.082 310.982,85.894L311.039,85.922C311.852,84.075 313.588,82.898 315.742,82.898C318.486,82.898 319.383,84.663 319.607,85.894C320.195,84.55 321.734,82.898 324.256,82.898C326.916,82.898 328.398,84.327 328.398,87.491L328.398,97.094L325.432,97.094Z" style="fill:rgb(35,31,32);fill-rule:nonzero;"/>
        <path d="M340.047,85.39C337.807,85.39 336.602,87.995 336.602,90.346L336.602,94.659C337.219,94.854 337.918,94.938 338.787,94.938C341.166,94.938 342.791,93.482 342.791,89.73C342.791,86.93 341.922,85.39 340.047,85.39ZM338.563,97.318C336.602,97.318 335.119,97.123 333.605,96.73L333.605,76.655L336.602,76.655L336.602,83.066C336.602,83.878 336.518,84.999 336.35,85.726L336.406,85.726C337.135,83.991 338.787,82.898 340.83,82.898C344.135,82.898 345.955,85.25 345.955,89.451C345.955,94.266 343.182,97.318 338.563,97.318Z" style="fill:rgb(35,31,32);fill-rule:nonzero;"/>
        <path d="M359.449,97.094C359.449,96.367 359.506,95.163 359.646,94.378L359.617,94.35C358.807,96.142 357.125,97.374 354.773,97.374C351.609,97.374 350.629,95.386 350.629,92.922L350.629,83.178L353.598,83.178L353.598,92.138C353.598,93.874 354.074,94.882 355.67,94.882C357.77,94.882 359.311,92.67 359.311,89.898L359.311,83.178L362.307,83.178L362.307,97.094L359.449,97.094Z" style="fill:rgb(35,31,32);fill-rule:nonzero;"/>
        <path d="M375.467,85.838C372.695,85.334 371.35,87.266 371.35,91.438L371.35,97.094L368.354,97.094L368.354,83.178L371.211,83.178C371.211,83.962 371.127,85.194 370.93,86.258L370.986,86.258C371.602,84.382 373.002,82.646 375.605,82.898L375.467,85.838Z" style="fill:rgb(35,31,32);fill-rule:nonzero;"/>
        <path d="M385.322,85.11C383.334,85.11 382.158,86.314 382.158,88.022C382.158,89.842 383.279,90.907 385.295,90.907C387.17,90.907 388.402,89.871 388.402,88.05C388.402,86.203 387.254,85.11 385.322,85.11ZM386.723,97.318L384.119,97.318C383.867,97.318 383.586,97.318 383.363,97.291C382.41,97.822 381.822,98.663 381.822,99.614C381.822,101.098 383.223,101.938 385.238,101.938C387.842,101.938 389.299,100.817 389.299,99.306C389.299,98.102 388.486,97.318 386.723,97.318ZM384.762,104.262C381.123,104.262 378.855,102.861 378.855,100.174C378.855,98.606 379.891,97.291 381.094,96.674C380.254,96.254 379.723,95.526 379.723,94.602C379.723,93.594 380.338,92.642 381.318,92.222C379.947,91.466 379.246,90.039 379.246,88.302C379.246,85.362 381.486,82.898 385.463,82.898C386.303,82.898 387.002,83.01 387.758,83.178L392.463,83.178L392.463,85.531L390.334,85.531C390.922,86.006 391.287,86.846 391.287,87.854C391.287,90.878 389.186,93.006 385.266,93.006C384.734,93.006 384.09,92.951 383.67,92.867C383.111,93.09 382.859,93.51 382.859,93.902C382.859,94.602 383.475,94.882 385.154,94.882L387.535,94.882C390.559,94.882 392.266,96.31 392.266,98.915C392.266,101.882 389.242,104.262 384.762,104.262Z" style="fill:rgb(35,31,32);fill-rule:nonzero;"/>
        <rect x="0.418" y="0.812" width="95.966" height="95.966" style="fill:rgb(237,28,36);fill-rule:nonzero;"/>
        <path d="M62.113,57.694L63.484,57.694L62.798,56.507L63.484,55.319L62.113,55.319L61.427,54.134L60.742,55.319L59.371,55.319L60.056,56.507L59.371,57.694L60.742,57.694L61.427,58.882L62.113,57.694Z" style="fill:white;fill-rule:nonzero;"/>
        <path d="M83.566,57.694L84.937,57.694L84.252,56.507L84.937,55.319L83.566,55.319L82.881,54.134L82.195,55.319L80.824,55.319L81.51,56.507L80.824,57.694L82.195,57.694L82.881,58.882L83.566,57.694Z" style="fill:white;fill-rule:nonzero;"/>
        <path d="M68.386,58.243L68.386,58.499L66.885,58.499L66.885,60.251L68.576,60.251L68.576,71.206L64.677,71.206L64.677,60.497L58.178,60.497L58.177,71.206L56.053,71.206L56.053,73.024L88.255,73.024L88.255,71.206L86.13,71.206L86.13,60.497L79.631,60.497L79.631,71.206L75.732,71.206L75.732,60.251L77.423,60.251L77.423,58.499L75.922,58.499C75.827,56.614 74.89,55.003 72.923,54.567L72.923,52.673L74.331,52.673L74.331,51.358L72.923,51.358L72.923,49.75L71.385,49.75L71.385,51.358L69.977,51.358L69.977,52.673L71.385,52.673L71.385,54.571C69.647,54.976 68.386,56.415 68.386,58.243Z" style="fill:white;fill-rule:nonzero;"/>
        <path d="M72.154,80.54C69.78,80.54 67.856,82.463 67.856,84.836L67.78,92.034L54.266,92.034C56.273,86.459 57.607,80.85 58.021,74.903L86.287,74.903C86.701,80.85 88.035,86.459 90.042,92.034L76.528,92.034L76.452,84.836C76.452,82.463 74.527,80.54 72.154,80.54Z" style="fill:white;fill-rule:nonzero;"/>
        <path d="M42.199,32.148L38.35,32.148L38.35,21.348L27.099,21.348L27.099,23.842C27.099,29.258 23.894,32.504 17.635,32.504C11.209,32.504 8.171,29.514 8.171,23.95L8.171,8.087L12.057,8.087L12.057,23.166C12.057,27.041 13.409,29.296 17.671,29.296C21.867,29.296 23.285,27.041 23.285,23.166L23.285,8.087L27.099,8.087L27.099,18.033L38.35,18.033L38.35,8.087L42.199,8.087L42.199,18.033L53.522,18.033L53.522,8.087L57.372,8.087L57.372,32.148L53.522,32.148L53.522,21.348L42.199,21.348L42.199,32.148Z" style="fill:white;fill-rule:nonzero;"/>
        <path d="M3.782,116.183C3.239,116.183 2.732,116.201 2.352,116.237L2.352,124.471C2.678,124.525 3.166,124.562 3.637,124.562C5.936,124.562 7.601,123.259 7.601,120.363C7.601,117.739 6.569,116.183 3.782,116.183ZM3.402,126.57C2.135,126.57 1.031,126.517 0,126.48L0,114.301C0.959,114.265 2.443,114.21 3.945,114.21C7.727,114.21 10.134,115.894 10.134,120.183C10.134,124.381 7.383,126.57 3.402,126.57Z" style="fill:rgb(35,31,32);fill-rule:nonzero;"/>
        <path d="M12.253,126.498L12.253,114.282L18.895,114.282L18.895,116.255L14.606,116.255L14.606,119.26L18.678,119.26L18.678,121.178L14.606,121.178L14.606,124.489L18.895,124.489L18.895,126.498L12.253,126.498Z" style="fill:rgb(35,31,32);fill-rule:nonzero;"/>
        <path d="M24.633,116.129C24.29,116.129 23.945,116.146 23.71,116.183L23.71,119.712C23.873,119.73 24.199,119.748 24.561,119.748C25.972,119.748 26.841,119.024 26.841,117.884C26.841,116.708 26.117,116.129 24.633,116.129ZM27.203,126.498L23.801,121.449L23.71,121.449L23.71,126.498L21.357,126.498L21.357,114.282C22.317,114.229 23.457,114.21 24.869,114.21C27.565,114.21 29.302,115.151 29.302,117.648C29.302,119.458 28.035,120.762 26.189,121.051C26.533,121.503 26.877,121.974 27.185,122.39L30.117,126.498L27.203,126.498Z" style="fill:rgb(35,31,32);fill-rule:nonzero;"/>
        <path d="M40.977,116.325L40.977,119.458L44.902,119.458L44.902,121.385L40.977,121.385L40.977,126.498L38.636,126.498L38.636,114.345L45.136,114.345L45.136,116.325L40.977,116.325Z" style="fill:rgb(35,31,32);fill-rule:nonzero;"/>
        <path d="M52.282,116.253C50.607,116.253 49.059,117.585 49.059,120.322C49.059,122.896 50.067,124.571 52.246,124.571C53.83,124.571 55.523,123.347 55.523,120.431C55.523,117.73 54.371,116.253 52.282,116.253ZM52.084,126.696C48.375,126.696 46.556,124.338 46.556,120.574C46.556,116.559 49.239,114.146 52.498,114.146C55.739,114.146 58.025,116.091 58.025,120.25C58.025,124.266 55.379,126.696 52.084,126.696Z" style="fill:rgb(35,31,32);fill-rule:nonzero;"/>
        <path d="M63.405,116.181C63.063,116.181 62.721,116.199 62.487,116.235L62.487,119.746C62.649,119.764 62.973,119.782 63.333,119.782C64.737,119.782 65.602,119.062 65.602,117.928C65.602,116.757 64.881,116.181 63.405,116.181ZM65.962,126.498L62.577,121.475L62.487,121.475L62.487,126.498L60.146,126.498L60.146,114.345C61.101,114.29 62.235,114.272 63.639,114.272C66.322,114.272 68.05,115.209 68.05,117.693C68.05,119.494 66.79,120.79 64.954,121.078C65.295,121.528 65.638,121.997 65.944,122.411L68.861,126.498L65.962,126.498Z" style="fill:rgb(35,31,32);fill-rule:nonzero;"/>
        <path d="M72.836,126.696C71.972,126.696 71.108,126.606 70.352,126.408L70.496,124.23C71.18,124.464 72.152,124.661 73.034,124.661C74.223,124.661 75.141,124.176 75.141,123.059C75.141,120.736 70.045,121.799 70.045,117.802C70.045,115.641 71.756,114.146 74.673,114.146C75.357,114.146 76.149,114.236 76.87,114.362L76.744,116.415C76.059,116.217 75.303,116.091 74.565,116.091C73.214,116.091 72.53,116.703 72.53,117.567C72.53,119.746 77.644,118.936 77.644,122.735C77.644,125.021 75.825,126.696 72.836,126.696Z" style="fill:rgb(35,31,32);fill-rule:nonzero;"/>
        <path d="M84.951,126.66C80.702,126.66 79.333,123.833 79.333,120.809C79.333,116.955 81.35,114.254 85.419,114.254C86.283,114.254 87.202,114.362 87.994,114.578L87.742,116.703C86.949,116.469 86.121,116.343 85.293,116.343C83.024,116.343 81.908,118.054 81.908,120.412C81.908,123.059 83.006,124.535 85.455,124.535C86.193,124.535 87.184,124.319 87.814,124.031L88.084,126.12C87.184,126.444 86.085,126.66 84.951,126.66Z" style="fill:rgb(35,31,32);fill-rule:nonzero;"/>
        <path d="M97.983,126.498L97.983,121.223L92.834,121.223L92.834,126.498L90.493,126.498L90.493,114.345L92.834,114.345L92.834,119.206L97.983,119.206L97.983,114.345L100.325,114.345L100.325,126.498L97.983,126.498Z" style="fill:rgb(35,31,32);fill-rule:nonzero;"/>
        <path d="M108.135,126.696C104.299,126.696 103.435,124.607 103.435,122.285L103.435,114.345L105.776,114.345L105.776,122.141C105.776,123.671 106.28,124.752 108.297,124.752C110.097,124.752 110.854,123.995 110.854,121.925L110.854,114.345L113.176,114.345L113.176,121.78C113.176,125.111 111.339,126.696 108.135,126.696Z" style="fill:rgb(35,31,32);fill-rule:nonzero;"/>
        <path d="M123.255,126.498L119.69,120.358C119.15,119.439 118.736,118.54 118.375,117.747C118.448,118.792 118.483,120.7 118.483,122.159L118.483,126.498L116.215,126.498L116.215,114.345L119.258,114.345L122.643,120.143C123.201,121.078 123.687,122.087 124.137,123.005C124.047,121.78 124.011,119.62 124.011,118.126L124.011,114.345L126.28,114.345L126.28,126.498L123.255,126.498Z" style="fill:rgb(35,31,32);fill-rule:nonzero;"/>
        <path d="M138.34,116.865C137.368,116.487 136.251,116.253 135.117,116.253C132.722,116.253 130.994,117.766 130.994,120.484C130.994,123.059 132.398,124.571 134.865,124.571C135.441,124.571 135.945,124.499 136.413,124.355L136.413,120.124L138.754,120.124L138.754,125.922C137.547,126.408 136.053,126.678 134.595,126.678C130.742,126.678 128.455,124.409 128.455,120.7C128.455,116.883 131.048,114.164 135.261,114.164C136.467,114.164 137.656,114.381 138.7,114.687L138.34,116.865Z" style="fill:rgb(35,31,32);fill-rule:nonzero;"/>
        <rect x="152.073" y="113.887" width="1.665" height="14.114" style="fill:rgb(35,31,32);fill-rule:nonzero;"/>
        <path d="M170.638,116.235C170.098,116.235 169.594,116.253 169.216,116.289L169.216,124.481C169.54,124.535 170.026,124.571 170.494,124.571C172.781,124.571 174.438,123.275 174.438,120.395C174.438,117.783 173.411,116.235 170.638,116.235ZM170.26,126.57C169,126.57 167.901,126.516 166.875,126.48L166.875,114.362C167.83,114.326 169.306,114.272 170.8,114.272C174.563,114.272 176.958,115.947 176.958,120.214C176.958,124.392 174.221,126.57 170.26,126.57Z" style="fill:rgb(35,31,32);fill-rule:nonzero;"/>
        <path d="M179.061,126.498L179.061,114.345L185.669,114.345L185.669,116.307L181.402,116.307L181.402,119.296L185.453,119.296L185.453,121.204L181.402,121.204L181.402,124.499L185.669,124.499L185.669,126.498L179.061,126.498Z" style="fill:rgb(35,31,32);fill-rule:nonzero;"/>
        <path d="M191.374,116.181C191.032,116.181 190.689,116.199 190.456,116.235L190.456,119.746C190.618,119.764 190.942,119.782 191.302,119.782C192.706,119.782 193.57,119.062 193.57,117.928C193.57,116.757 192.85,116.181 191.374,116.181ZM193.931,126.498L190.545,121.475L190.456,121.475L190.456,126.498L188.115,126.498L188.115,114.345C189.069,114.29 190.204,114.272 191.608,114.272C194.291,114.272 196.019,115.209 196.019,117.693C196.019,119.494 194.759,120.79 192.922,121.078C193.265,121.528 193.606,121.997 193.913,122.411L196.83,126.498L193.931,126.498Z" style="fill:rgb(35,31,32);fill-rule:nonzero;"/>
        <path d="M205.305,126.498L205.305,114.345L207.645,114.345L207.645,124.445L211.588,124.445L211.588,126.498L205.305,126.498Z" style="fill:rgb(35,31,32);fill-rule:nonzero;"/>
        <path d="M213.297,126.498L213.297,114.345L219.904,114.345L219.904,116.307L215.637,116.307L215.637,119.296L219.689,119.296L219.689,121.204L215.637,121.204L215.637,124.499L219.904,124.499L219.904,126.498L213.297,126.498Z" style="fill:rgb(35,31,32);fill-rule:nonzero;"/>
        <path d="M229.932,126.498L229.932,121.223L224.781,121.223L224.781,126.498L222.441,126.498L222.441,114.345L224.781,114.345L224.781,119.206L229.932,119.206L229.932,114.345L232.271,114.345L232.271,126.498L229.932,126.498Z" style="fill:rgb(35,31,32);fill-rule:nonzero;"/>
        <path d="M238.678,116.181C238.336,116.181 237.994,116.199 237.76,116.235L237.76,119.746C237.922,119.764 238.246,119.782 238.605,119.782C240.01,119.782 240.875,119.062 240.875,117.928C240.875,116.757 240.154,116.181 238.678,116.181ZM241.234,126.498L237.85,121.475L237.76,121.475L237.76,126.498L235.42,126.498L235.42,114.345C236.373,114.29 237.508,114.272 238.912,114.272C241.596,114.272 243.324,115.209 243.324,117.693C243.324,119.494 242.063,120.79 240.227,121.078C240.568,121.528 240.91,121.997 241.217,122.411L244.133,126.498L241.234,126.498Z" style="fill:rgb(35,31,32);fill-rule:nonzero;"/>
        <path d="M246.021,126.498L246.021,114.345L252.629,114.345L252.629,116.307L248.361,116.307L248.361,119.296L252.412,119.296L252.412,121.204L248.361,121.204L248.361,124.499L252.629,124.499L252.629,126.498L246.021,126.498Z" style="fill:rgb(35,31,32);fill-rule:nonzero;"/>
        <rect x="265.75" y="113.887" width="1.664" height="14.114" style="fill:rgb(35,31,32);fill-rule:nonzero;"/>
        <path d="M283.977,116.235C283.436,116.235 282.932,116.253 282.553,116.289L282.553,124.481C282.877,124.535 283.363,124.571 283.832,124.571C286.119,124.571 287.775,123.275 287.775,120.395C287.775,117.783 286.748,116.235 283.977,116.235ZM283.598,126.57C282.338,126.57 281.24,126.516 280.213,126.48L280.213,114.362C281.168,114.326 282.645,114.272 284.139,114.272C287.9,114.272 290.297,115.947 290.297,120.214C290.297,124.392 287.559,126.57 283.598,126.57Z" style="fill:rgb(35,31,32);fill-rule:nonzero;"/>
        <path d="M292.398,126.498L292.398,114.345L299.006,114.345L299.006,116.307L294.738,116.307L294.738,119.296L298.791,119.296L298.791,121.204L294.738,121.204L294.738,124.499L299.006,124.499L299.006,126.498L292.398,126.498Z" style="fill:rgb(35,31,32);fill-rule:nonzero;"/>
        <path d="M304.713,116.181C304.369,116.181 304.027,116.199 303.793,116.235L303.793,119.746C303.955,119.764 304.279,119.782 304.641,119.782C306.045,119.782 306.908,119.062 306.908,117.928C306.908,116.757 306.189,116.181 304.713,116.181ZM307.27,126.498L303.885,121.475L303.793,121.475L303.793,126.498L301.453,126.498L301.453,114.345C302.408,114.29 303.541,114.272 304.945,114.272C307.629,114.272 309.357,115.209 309.357,117.693C309.357,119.494 308.098,120.79 306.26,121.078C306.604,121.528 306.945,121.997 307.25,122.411L310.168,126.498L307.27,126.498Z" style="fill:rgb(35,31,32);fill-rule:nonzero;"/>
        <path d="M322.01,121.133C321.83,121.133 321.236,121.133 320.982,121.15L320.982,124.554C321.271,124.59 321.721,124.625 322.262,124.625C323.793,124.625 324.566,123.905 324.566,122.807C324.566,121.618 323.541,121.133 322.01,121.133ZM322.352,116.163C321.865,116.163 321.398,116.181 320.982,116.199L320.982,119.368C321.271,119.386 321.559,119.386 321.938,119.386C323.541,119.386 324.369,118.737 324.369,117.657C324.369,116.757 323.828,116.163 322.352,116.163ZM322.189,126.534C321.451,126.534 320.174,126.498 318.643,126.498L318.643,114.362C319.67,114.309 321.254,114.272 322.748,114.272C325.377,114.272 326.836,115.335 326.836,117.279C326.836,118.485 326.061,119.548 324.908,119.998L324.908,120.034C326.35,120.34 327.068,121.528 327.068,122.753C327.068,124.518 325.863,126.534 322.189,126.534Z" style="fill:rgb(35,31,32);fill-rule:nonzero;"/>
        <rect x="329.496" y="114.345" width="2.34" height="12.153" style="fill:rgb(35,31,32);fill-rule:nonzero;"/>
        <path d="M334.969,126.498L334.969,114.345L337.309,114.345L337.309,124.445L341.252,124.445L341.252,126.498L334.969,126.498Z" style="fill:rgb(35,31,32);fill-rule:nonzero;"/>
        <path d="M346.723,116.235C346.184,116.235 345.68,116.253 345.301,116.289L345.301,124.481C345.625,124.535 346.111,124.571 346.58,124.571C348.865,124.571 350.521,123.275 350.521,120.395C350.521,117.783 349.496,116.235 346.723,116.235ZM346.346,126.57C345.084,126.57 343.986,126.516 342.961,126.48L342.961,114.362C343.914,114.326 345.391,114.272 346.885,114.272C350.648,114.272 353.043,115.947 353.043,120.214C353.043,124.392 350.307,126.57 346.346,126.57Z" style="fill:rgb(35,31,32);fill-rule:nonzero;"/>
        <path d="M359.936,126.696C356.1,126.696 355.236,124.607 355.236,122.285L355.236,114.345L357.576,114.345L357.576,122.141C357.576,123.671 358.08,124.752 360.098,124.752C361.896,124.752 362.654,123.995 362.654,121.925L362.654,114.345L364.977,114.345L364.977,121.78C364.977,125.111 363.141,126.696 359.936,126.696Z" style="fill:rgb(35,31,32);fill-rule:nonzero;"/>
        <path d="M375.055,126.498L371.488,120.358C370.949,119.439 370.535,118.54 370.174,117.747C370.246,118.792 370.283,120.7 370.283,122.159L370.283,126.498L368.014,126.498L368.014,114.345L371.057,114.345L374.441,120.143C375,121.078 375.486,122.087 375.936,123.005C375.846,121.78 375.811,119.62 375.811,118.126L375.811,114.345L378.078,114.345L378.078,126.498L375.055,126.498Z" style="fill:rgb(35,31,32);fill-rule:nonzero;"/>
        <path d="M390.139,116.865C389.166,116.487 388.051,116.253 386.916,116.253C384.521,116.253 382.793,117.766 382.793,120.484C382.793,123.059 384.197,124.571 386.664,124.571C387.24,124.571 387.744,124.499 388.213,124.355L388.213,120.124L390.553,120.124L390.553,125.922C389.348,126.408 387.852,126.678 386.395,126.678C382.541,126.678 380.254,124.409 380.254,120.7C380.254,116.883 382.848,114.164 387.061,114.164C388.266,114.164 389.455,114.381 390.5,114.687L390.139,116.865Z" style="fill:rgb(35,31,32);fill-rule:nonzero;"/>
    </g>
</svg>
